<svg id="svg" version="1.1" xmlns="http://www.w3.org/2000/svg" style="display: block;" viewBox="0 0 500 500"><path d="M0 0 C165 0 330 0 500 0 C500 165 500 330 500 500 C335 500 170 500 0 500 C0 335 0 170 0 0 Z " transform="translate(0,0)" style="fill: #000000;"/><path d="M0 0 C7.06327648 2.87359319 13.05852103 6.46665743 19.078125 11.125 C21.12623967 12.67357451 23.09545727 13.92842703 25.35546875 15.12890625 C28.67630374 17.05499054 30.77341148 19.23434898 33.48046875 21.94140625 C35.3066987 23.39390845 37.1625029 24.80983951 39.04296875 26.19140625 C40.08582031 26.96097656 41.12867188 27.73054688 42.203125 28.5234375 C42.7408252 28.91869629 43.27852539 29.31395508 43.83251953 29.72119141 C45.49496273 30.95213824 47.14368335 32.19947959 48.7890625 33.453125 C49.32394287 33.85950195 49.85882324 34.26587891 50.40991211 34.68457031 C51.90294816 35.81995541 53.39486441 36.95681262 54.88671875 38.09375 C58.94239293 41.18177308 58.94239293 41.18177308 63.78515625 41.734375 C65.05746094 41.43466797 65.05746094 41.43466797 66.35546875 41.12890625 C73.04670278 39.72546745 79.65998604 39.34658344 86.48046875 38.94140625 C85.82046875 32.67140625 85.16046875 26.40140625 84.48046875 19.94140625 C82.95421875 19.83828125 81.42796875 19.73515625 79.85546875 19.62890625 C72.92969169 19.0148869 66.24357626 17.51123705 59.48046875 15.94140625 C59.48046875 15.61140625 59.48046875 15.28140625 59.48046875 14.94140625 C65.15737812 14.7946996 70.29727258 15.25788169 75.85546875 16.37890625 C76.56574219 16.51361328 77.27601563 16.64832031 78.0078125 16.78710938 C83.18626262 17.79430318 83.18626262 17.79430318 85.48046875 18.94140625 C88.10764925 28.40269027 89.59267998 40.1388666 88.48046875 49.94140625 C87.49046875 50.93140625 87.49046875 50.93140625 86.48046875 51.94140625 C86.80373428 55.53819691 86.80373428 55.53819691 87.48046875 58.94140625 C95.08363617 60.62016676 102.67720283 61.68951261 110.41796875 62.50390625 C111.64475342 62.63321533 112.87153809 62.76252441 114.13549805 62.89575195 C129.87695758 64.42994795 145.6749194 64.68767637 161.48046875 64.94140625 C161.48046875 65.60140625 161.48046875 66.26140625 161.48046875 66.94140625 C163.42650149 67.53210639 163.42650149 67.53210639 165.48046875 67.94140625 C170.17827057 63.24360443 167.8600188 47.04149715 168.04296875 40.31640625 C168.0862659 38.82030313 168.12988331 37.32420924 168.17382812 35.828125 C168.28032138 32.19931718 168.38025525 28.57041439 168.48046875 24.94140625 C173.10046875 24.94140625 177.72046875 24.94140625 182.48046875 24.94140625 C182.15046875 25.60140625 181.82046875 26.26140625 181.48046875 26.94140625 C177.52046875 26.61140625 173.56046875 26.28140625 169.48046875 25.94140625 C169.81046875 29.90140625 170.14046875 33.86140625 170.48046875 37.94140625 C179.21957005 38.50888036 184.79876728 37.10170879 192.48046875 32.94140625 C191.49046875 29.47640625 191.49046875 29.47640625 190.48046875 25.94140625 C191.14046875 25.94140625 191.80046875 25.94140625 192.48046875 25.94140625 C194.72758184 29.51531308 194.64611542 32.29717947 194.45703125 36.45703125 C194.40546875 37.70742187 194.35390625 38.9578125 194.30078125 40.24609375 C194.23632812 41.54804688 194.171875 42.85 194.10546875 44.19140625 C194.04875 45.50882813 193.99203125 46.82625 193.93359375 48.18359375 C193.79215216 51.43675031 193.64073861 54.68913177 193.48046875 57.94140625 C194.4250293 58.0906958 195.36958984 58.23998535 196.34277344 58.39379883 C206.16655067 60.10829714 216.04893689 66.5007453 223.48046875 72.94140625 C222.98933594 71.79800781 222.49820312 70.65460938 221.9921875 69.4765625 C219.60464237 62.3139271 220.16218836 54.83009814 220.29296875 47.37890625 C220.30804483 45.87826866 220.32172806 44.3776164 220.33398438 42.87695312 C220.36675393 39.23146173 220.41837396 35.5865299 220.48046875 31.94140625 C217.84046875 31.28140625 215.20046875 30.62140625 212.48046875 29.94140625 C212.45859497 28.8289856 212.45859497 28.8289856 212.4362793 27.6940918 C212.36187418 24.33849994 212.26518869 20.98391131 212.16796875 17.62890625 C212.14541016 16.46166016 212.12285156 15.29441406 212.09960938 14.09179688 C212.04643555 12.4144043 212.04643555 12.4144043 211.9921875 10.703125 C211.96600342 9.67147217 211.93981934 8.63981934 211.9128418 7.5769043 C211.4317584 4.64449592 210.78913204 3.73404702 208.48046875 1.94140625 C210.13046875 2.60140625 211.78046875 3.26140625 213.48046875 3.94140625 C213.81046875 8.89140625 214.14046875 13.84140625 214.48046875 18.94140625 C215.14046875 18.94140625 215.80046875 18.94140625 216.48046875 18.94140625 C216.48046875 18.28140625 216.48046875 17.62140625 216.48046875 16.94140625 C218.32407165 15.55649881 220.23269139 14.25751776 222.16796875 13.00390625 C223.22371094 12.31425781 224.27945312 11.62460938 225.3671875 10.9140625 C230.01801685 7.96717565 234.67631544 5.27480602 239.60546875 2.81640625 C241.15621094 2.03910156 241.15621094 2.03910156 242.73828125 1.24609375 C248.85034662 -1.66192596 254.80364342 -1.80418654 261.48046875 -1.05859375 C265.35681724 1.60164541 267.31784605 4.39660844 268.48046875 8.94140625 C268.87015176 15.63346254 267.65774054 21.37124423 265.91796875 27.81640625 C265.51578125 29.33161865 265.51578125 29.33161865 265.10546875 30.87744141 C262.96082388 38.7086072 260.26817875 46.18994164 257.19140625 53.6953125 C255.4968796 57.82961748 254.04029156 62.0239096 252.60546875 66.25390625 C249.94315098 74.04262156 246.72599792 81.55973692 243.37548828 89.07543945 C243.00020996 89.92581787 242.62493164 90.77619629 242.23828125 91.65234375 C241.89941895 92.40821777 241.56055664 93.1640918 241.21142578 93.94287109 C240.30872241 96.05631503 240.30872241 96.05631503 240.48046875 98.94140625 C246.76607822 97.62902625 252.81525117 95.99155981 258.91796875 94.00390625 C260.59478571 93.46271564 262.27186641 92.92234147 263.94921875 92.3828125 C264.738125 92.12902832 265.52703125 91.87524414 266.33984375 91.61376953 C268.84942451 90.82551846 271.37935048 90.12963555 273.91796875 89.44140625 C280.7520018 87.42716493 287.16815589 83.98850089 293.2109375 80.25390625 C295.48046875 78.94140625 295.48046875 78.94140625 297.48046875 78.94140625 C295.16377884 84.96693673 289.04899833 87.36217909 283.48046875 89.94140625 C277.53426761 92.35368256 271.40567343 94.25288215 265.29296875 96.19140625 C263.6890353 96.71095145 262.08551656 97.23177872 260.48242188 97.75390625 C259.70382309 98.0065625 258.9252243 98.25921875 258.12303162 98.51953125 C256.6001017 99.01387525 255.07751978 99.50929279 253.55531311 100.00585938 C250.53819371 100.98413832 247.53939499 101.92579589 244.47241211 102.73828125 C240.50542894 103.81679352 238.7944449 104.45893993 236.5078125 107.97265625 C236.14816406 109.11734375 235.78851563 110.26203125 235.41796875 111.44140625 C235.03511719 112.58609375 234.65226562 113.73078125 234.2578125 114.91015625 C233.35626606 117.90417844 233.35626606 117.90417844 233.48046875 120.94140625 C234.41246094 120.67585938 235.34445312 120.4103125 236.3046875 120.13671875 C249.06920054 116.56872541 261.15543414 114.54885204 274.48046875 114.94140625 C274.15046875 115.93140625 273.82046875 116.92140625 273.48046875 117.94140625 C272.29453125 118.039375 271.10859375 118.13734375 269.88671875 118.23828125 C260.15301933 119.11333406 250.93252893 120.54001303 241.5078125 123.13671875 C238.48046875 123.94140625 238.48046875 123.94140625 236.48046875 123.94140625 C236.81046875 125.26140625 237.14046875 126.58140625 237.48046875 127.94140625 C238.09148437 128.01617187 238.7025 128.0909375 239.33203125 128.16796875 C254.90668665 130.40545446 270.55393313 134.53143824 284.48046875 141.94140625 C284.48046875 142.60140625 284.48046875 143.26140625 284.48046875 143.94140625 C279.73671202 143.33752311 275.62724635 141.9210231 271.23046875 140.12890625 C260.028429 135.74337631 248.41276588 133.29857068 236.48046875 131.94140625 C240.02453632 140.00387302 245.46945683 142.46148388 253.29296875 145.81640625 C255.54228268 146.8379914 257.78838551 147.86667573 260.03125 148.90234375 C261.12775879 149.40862305 262.22426758 149.91490234 263.35400391 150.43652344 C267.71693888 152.53656492 271.87012895 154.88649972 275.98046875 157.44140625 C276.63764893 157.83827637 277.2948291 158.23514648 277.97192383 158.64404297 C282.25550108 161.37510832 282.25550108 161.37510832 283.38671875 164.22265625 C283.433125 165.0734375 283.433125 165.0734375 283.48046875 165.94140625 C279.85768474 164.61819081 276.90705787 162.99145931 273.73046875 160.81640625 C267.01875576 156.4623744 259.88365526 153.26540775 252.63037109 149.94091797 C249.21752925 148.35425268 245.84632945 146.68749562 242.48046875 145.00390625 C241.34609375 144.43800781 240.21171875 143.87210938 239.04296875 143.2890625 C236.48046875 141.94140625 236.48046875 141.94140625 235.48046875 140.94140625 C235.44083008 141.55435547 235.40119141 142.16730469 235.36035156 142.79882812 C234.08729988 161.60623248 231.34960149 178.65987751 222.79296875 195.62890625 C222.44991699 196.31082031 222.10686523 196.99273437 221.75341797 197.6953125 C218.38374544 204.29061516 214.85087476 210.95005153 210.48046875 216.94140625 C209.82046875 216.94140625 209.16046875 216.94140625 208.48046875 216.94140625 C208.25617188 217.61945313 208.031875 218.2975 207.80078125 218.99609375 C206.11453479 222.75772047 203.83311052 225.78984971 201.35546875 229.06640625 C200.36415035 230.3929057 199.37326875 231.71973168 198.3828125 233.046875 C197.89280762 233.70091309 197.40280273 234.35495117 196.89794922 235.02880859 C195.59058225 236.79283078 194.31181277 238.57259337 193.046875 240.3671875 C192.34433594 241.36105469 191.64179688 242.35492188 190.91796875 243.37890625 C190.29792969 244.26449219 189.67789063 245.15007812 189.0390625 246.0625 C188.52472656 246.68253906 188.01039063 247.30257812 187.48046875 247.94140625 C186.82046875 247.94140625 186.16046875 247.94140625 185.48046875 247.94140625 C185.23039063 248.50085938 184.9803125 249.0603125 184.72265625 249.63671875 C183.27623036 252.32033911 181.55308375 254.46928048 179.60546875 256.81640625 C178.40470703 258.26466797 178.40470703 258.26466797 177.1796875 259.7421875 C173.7769547 263.7918565 170.32422957 267.79886504 166.86499023 271.80029297 C163.86840348 275.2780029 160.98305344 278.81343858 158.16796875 282.44140625 C155.44072234 285.90117752 152.62794139 288.68827762 149.20703125 291.4453125 C145.09547813 295.0080384 141.72033134 299.37334474 138.35546875 303.62890625 C136.22430112 306.25734632 133.87390067 308.54797433 131.48046875 310.94140625 C128.785912 313.91695961 126.12898794 316.92485462 123.48046875 319.94140625 C119.78163443 318.68329934 117.68885985 317.47093872 115.23046875 314.44140625 C114.64007813 313.73371094 114.0496875 313.02601563 113.44140625 312.296875 C112.79429687 311.51957031 112.1471875 310.74226563 111.48046875 309.94140625 C109.94695506 308.20500502 108.40506725 306.47596837 106.85546875 304.75390625 C106.14132813 303.95597656 105.4271875 303.15804688 104.69140625 302.3359375 C102.35155961 299.80179264 99.9211357 297.37836398 97.48046875 294.94140625 C86.91378971 283.79781083 86.91378971 283.79781083 83.60546875 279.00390625 C81.46413381 275.91786472 79.13474209 273.59183282 76.48046875 270.94140625 C74.70659897 268.91489442 72.95756097 266.88158345 71.23046875 264.81640625 C70.75303223 264.24873535 70.2755957 263.68106445 69.78369141 263.09619141 C66.03815284 258.63270601 62.33353049 254.1363684 58.66015625 249.61328125 C57.19867095 247.82178315 55.72449951 246.04056485 54.23828125 244.26953125 C49.36533913 238.43548981 44.92470308 232.40330246 40.6640625 226.1171875 C38.67466172 223.22383718 36.59949913 220.42770479 34.48046875 217.62890625 C31.1583821 213.09696511 28.30550224 208.38845759 25.54296875 203.50390625 C25.15302734 202.81707764 24.76308594 202.13024902 24.36132812 201.42260742 C22.6240095 198.28745958 21.24330328 195.43912962 20.48046875 191.94140625 C19.82046875 191.94140625 19.16046875 191.94140625 18.48046875 191.94140625 C17.68492689 189.29668502 16.89397712 186.65072509 16.10546875 184.00390625 C15.88375 183.26849609 15.66203125 182.53308594 15.43359375 181.77539062 C12.61874912 172.2959874 11.08165453 163.25384233 10.35546875 153.37890625 C10.26910156 152.27482422 10.18273437 151.17074219 10.09375 150.03320312 C9.88360354 147.33632358 9.67930627 144.63913911 9.48046875 141.94140625 C-5.23055259 147.63504679 -18.99620178 155.34362739 -32.62011719 163.24902344 C-37.30794448 165.94140625 -37.30794448 165.94140625 -39.51953125 165.94140625 C-38.00805584 161.40698001 -34.64681794 160.04604298 -30.70703125 157.56640625 C-29.89129639 157.04981445 -29.07556152 156.53322266 -28.23510742 156.00097656 C-16.58319057 148.86378995 -3.99563269 143.45650629 8.48046875 137.94140625 C8.48046875 135.63140625 8.48046875 133.32140625 8.48046875 130.94140625 C-14.73973325 135.84153895 -14.73973325 135.84153895 -37.37890625 142.875 C-40.51953125 143.94140625 -40.51953125 143.94140625 -43.51953125 143.94140625 C-43.18953125 142.95140625 -42.85953125 141.96140625 -42.51953125 140.94140625 C-39.9921875 139.73046875 -39.9921875 139.73046875 -36.58203125 138.56640625 C-35.65680664 138.25050537 -35.65680664 138.25050537 -34.71289062 137.92822266 C-3.71129117 127.56619152 -3.71129117 127.56619152 9.48046875 127.94140625 C9.81046875 125.63140625 10.14046875 123.32140625 10.48046875 120.94140625 C9.94421875 120.8434375 9.40796875 120.74546875 8.85546875 120.64453125 C4.12641453 119.74227749 -0.53038232 118.69504458 -5.1875 117.47070312 C-13.59487533 115.26722274 -21.87697362 113.88513381 -30.51953125 112.94140625 C-30.51953125 111.95140625 -30.51953125 110.96140625 -30.51953125 109.94140625 C-15.39132822 110.17093761 -1.59115544 113.47266139 12.48046875 118.94140625 C10.54163101 110.91399331 10.54163101 110.91399331 4.87109375 105.36743164 C3.8346875 104.92906982 2.79828125 104.49070801 1.73046875 104.0390625 C0.57345459 103.54398193 -0.58355957 103.04890137 -1.77563477 102.53881836 C-3.02316253 102.0261146 -4.2711377 101.51449827 -5.51953125 101.00390625 C-6.79301251 100.4710835 -8.06636795 99.93795995 -9.33959961 99.40454102 C-22.13560675 94.09656995 -35.16273785 89.73748107 -48.68359375 86.6796875 C-49.28945312 86.43605469 -49.8953125 86.19242187 -50.51953125 85.94140625 C-50.84953125 84.95140625 -51.17953125 83.96140625 -51.51953125 82.94140625 C-31.14159173 87.03626407 -12.00885117 93.32695989 6.48046875 102.94140625 C3.91276752 93.79883369 0.47882045 85.23340245 -3.30859375 76.53515625 C-6.47899871 69.17833723 -9.33635947 61.71691658 -12.08203125 54.19140625 C-12.43862823 53.21643692 -12.43862823 53.21643692 -12.8024292 52.22177124 C-25.18326035 18.26005177 -25.18326035 18.26005177 -22.83203125 6.50390625 C-18.07401084 -2.78556216 -9.16876372 -2.75775246 0 0 Z " transform="translate(129.51953125,96.05859375)" style="fill: #7A2212;"/><path d="M0 0 C8.2635357 3.74840795 15.21370939 7.97285376 22 14 C23.04800781 14.88945312 23.04800781 14.88945312 24.1171875 15.796875 C37.31320819 27.81192885 44.99766152 48.06951459 46.16845703 65.50927734 C47.35098942 92.45023481 38.47613304 114.0254214 20.41796875 133.83203125 C1.90801477 151.88705549 -23.33422333 161.25733585 -48.9465332 161.18115234 C-54.86116522 161.08936767 -60.2738586 160.43910961 -66 159 C-66.61423828 158.8546582 -67.22847656 158.70931641 -67.86132812 158.55957031 C-88.72738887 153.52882131 -107.5892925 141.88990048 -121 125 C-121.75796875 124.12214844 -121.75796875 124.12214844 -122.53125 123.2265625 C-137.6372342 104.82618812 -140.62030046 83.04949741 -139 60 C-137.03544991 42.32928125 -126.88938036 22.86516061 -113.078125 11.63671875 C-112.39234375 11.09660156 -111.7065625 10.55648437 -111 10 C-110.23171875 9.34644531 -109.4634375 8.69289062 -108.671875 8.01953125 C-107.89328125 7.37371094 -107.1146875 6.72789062 -106.3125 6.0625 C-105.25482422 5.18271484 -105.25482422 5.18271484 -104.17578125 4.28515625 C-101.58838506 2.75687376 -99.95554967 2.74637139 -97 3 C-96.505 4.485 -96.505 4.485 -96 6 C-97.8125 9 -97.8125 9 -100 12 C-100.66 12.99 -101.32 13.98 -102 15 C-101.34 15.33 -100.68 15.66 -100 16 C-100.51949219 16.23074219 -101.03898437 16.46148437 -101.57421875 16.69921875 C-108.64829912 20.00743009 -113.25237292 23.93792331 -116.2734375 31.26953125 C-118.00283177 37.7687065 -118.2964461 45.66905666 -115.75 52 C-115.1725 52.99 -114.595 53.98 -114 55 C-113.443125 56.051875 -112.88625 57.10375 -112.3125 58.1875 C-109.31359744 61.83481392 -106.60111941 63.83196283 -102 65 C-97.31909444 65.14650722 -93.61965947 64.27995561 -89.9140625 61.3515625 C-84.79982193 55.89205674 -81.95426295 50.11902481 -81.625 42.625 C-82.03125869 33.15104738 -85.56079043 24.98260279 -92 18 C-95.20069865 16.28228938 -95.20069865 16.28228938 -98 16 C-97.60446947 14.3489597 -97.18286103 12.7041485 -96.75 11.0625 C-96.51796875 10.14597656 -96.2859375 9.22945312 -96.046875 8.28515625 C-95 6 -95 6 -93.203125 4.93359375 C-91 5 -91 5 -88.79150391 6.9921875 C-85.26444138 9.52905668 -83.4289033 9.38820686 -79.1328125 9.19140625 C-77.79080676 9.15102693 -76.44866909 9.11484959 -75.10644531 9.08251953 C-74.423927 9.06344543 -73.74140869 9.04437134 -73.03820801 9.02471924 C-67.31243601 8.95527749 -61.5820088 9.52698633 -55.875 9.9375 C-53.15774228 10.12394024 -50.44020803 10.30618367 -47.72265625 10.48828125 C-46.4092627 10.57674316 -45.09586914 10.66520508 -43.74267578 10.75634766 C-22.54342287 13.85528401 -22.54342287 13.85528401 -3 10 C-1.87108243 7.60540353 -1.87108243 7.60540353 -1.25 4.875 C-0.88648438 3.50988281 -0.88648438 3.50988281 -0.515625 2.1171875 C-0.34546875 1.41851562 -0.1753125 0.71984375 0 0 Z " transform="translate(299,155)" style="fill: #000000;"/><path d="M0 0 C0 0.99 0 1.98 0 3 C0.87914062 3.18433594 1.75828125 3.36867188 2.6640625 3.55859375 C12.03936673 5.60666889 21.28819824 8.1084816 30.49871826 10.79421997 C31.81979731 11.17760244 33.14242072 11.55570762 34.46661377 11.92819214 C42.72812174 14.26097129 50.7749974 16.7749974 57 23 C58.48925122 20.02149756 58.60624338 16.83252565 59 13.5625 C59.86775632 6.39673105 59.86775632 6.39673105 61 3 C67.32481353 3.48652412 67.32481353 3.48652412 70.20996094 5.68066406 C72.47793223 8.61925208 72.46570465 10.18047239 72.390625 13.859375 C72.37773437 14.97441406 72.36484375 16.08945313 72.3515625 17.23828125 C72.30128906 18.97658203 72.30128906 18.97658203 72.25 20.75 C72.23195313 21.92433594 72.21390625 23.09867188 72.1953125 24.30859375 C72.1481912 27.2065534 72.08241305 30.10286418 72 33 C72.763125 32.95875 73.52625 32.9175 74.3125 32.875 C77 33 77 33 80 35 C80.40063477 38.02172852 80.40063477 38.02172852 80.44140625 41.87890625 C80.46121803 42.90805397 80.46121803 42.90805397 80.48143005 43.95799255 C80.52238107 46.15953454 80.54397291 48.36066345 80.5625 50.5625 C80.64894647 63.40668671 80.64894647 63.40668671 83 76 C80.57363241 74.84824323 78.72680236 73.77712824 76.625 72.0625 C69.92630248 66.79923767 61.0413603 63.68045343 53 61 C53.00523682 60.17274414 53.01047363 59.34548828 53.01586914 58.49316406 C53.03665469 54.74545043 53.04966524 50.99774894 53.0625 47.25 C53.07087891 45.94804687 53.07925781 44.64609375 53.08789062 43.3046875 C53.09111328 42.05429688 53.09433594 40.80390625 53.09765625 39.515625 C53.10289307 38.36352539 53.10812988 37.21142578 53.11352539 36.02441406 C53.01804485 33.48073036 52.74917261 31.41601687 52 29 C52 31.62113708 52.31292445 33.50935112 53 36 C45.32665458 40.49955334 39.01149675 43.33566274 30 42 C29 41 29 41 28.90234375 38.27734375 C28.93489583 35.18489583 28.96744792 32.09244792 29 29 C32.96 29 36.92 29 41 29 C34.565 28.505 34.565 28.505 28 28 C28.00523682 28.91700684 28.01047363 29.83401367 28.01586914 30.77880859 C28.03305437 34.22673184 28.04551924 37.67460863 28.05493164 41.12255859 C28.05991708 42.60628992 28.06670785 44.09001646 28.07543945 45.57373047 C28.19134133 65.79519874 28.19134133 65.79519874 27 70 C26.01 70.66 25.02 71.32 24 72 C22.515 71.01 22.515 71.01 21 70 C21 69.34 21 68.68 21 68 C19.99815674 68.11263184 19.99815674 68.11263184 18.97607422 68.22753906 C12.29736243 68.91558515 5.82737032 69.06850344 -0.875 68.75 C-1.8851416 68.70407715 -2.8952832 68.6581543 -3.93603516 68.61083984 C-12.43653398 68.17389229 -20.90473316 67.45700733 -29.375 66.625 C-30.5801123 66.51124023 -31.78522461 66.39748047 -33.02685547 66.28027344 C-47.97086506 64.7151279 -47.97086506 64.7151279 -53 62 C-54.50261215 59.20868924 -54.68280256 57.22484066 -55 54 C-54.34 53.67 -53.68 53.34 -53 53 C-52.8608278 45.88868736 -53.26507455 38.94617463 -54 31.875 C-54.09539062 30.91851562 -54.19078125 29.96203125 -54.2890625 28.9765625 C-54.5216625 26.65056246 -54.75869679 24.32511041 -55 22 C-69.59062888 19.17235874 -84.17967957 17.95920503 -99 17 C-99.33 16.01 -99.66 15.02 -100 14 C-86.53053414 7.77823199 -72.7322663 5.75137974 -58.07763672 4.71826172 C-51.65280489 4.25739171 -45.3552305 3.54290632 -39 2.5 C-31.37563032 1.26772353 -23.75753516 0.41248647 -16.0625 -0.25 C-14.52432617 -0.38825195 -14.52432617 -0.38825195 -12.95507812 -0.52929688 C-11.5097168 -0.6462793 -11.5097168 -0.6462793 -10.03515625 -0.765625 C-9.1831665 -0.83555664 -8.33117676 -0.90548828 -7.45336914 -0.97753906 C-4.83546511 -1.00150634 -2.54253846 -0.59877903 0 0 Z " transform="translate(270,93)" style="fill: #0C0B0B;"/><path d="M0 0 C1.52800852 2.91465943 2.71645092 5.83591431 3.8125 8.9375 C4.16699219 9.91203125 4.52148438 10.8865625 4.88671875 11.890625 C5.61878274 13.93526689 6.33038915 15.98736989 7.01953125 18.046875 C12.44534374 33.46155078 21.53869249 46.52651684 34 57 C34.80308594 57.71414063 35.60617188 58.42828125 36.43359375 59.1640625 C43.92565227 65.64307893 53.96719153 73.1895684 64 75 C64 75.66 64 76.32 64 77 C64.68964844 77.10957031 65.37929687 77.21914063 66.08984375 77.33203125 C71.53733561 78.25115539 76.6526868 79.3829179 81.83203125 81.31640625 C89.04072127 83.58941662 96.53041436 83.18367337 104 83.1875 C105.258125 83.19974609 106.51625 83.21199219 107.8125 83.22460938 C109.029375 83.22654297 110.24625 83.22847656 111.5 83.23046875 C112.6034375 83.23457764 113.706875 83.23868652 114.84375 83.24291992 C118.1923017 82.98519955 120.85958795 82.15722638 124 81 C125.99681927 80.58842156 127.99705693 80.19316137 130 79.8125 C136.67517879 78.34104842 142.06078584 75.68404136 148.00390625 72.42578125 C151 71 151 71 155 71 C155 70.34 155 69.68 155 69 C155.74830078 68.65001953 155.74830078 68.65001953 156.51171875 68.29296875 C168.85236319 62.02294653 179.5069994 51.75298697 187.5625 40.625 C188.26536133 39.67367187 188.26536133 39.67367187 188.98242188 38.703125 C192.87521926 33.36754257 196.64242271 27.95068168 198.5625 21.5625 C199.4669641 18.65740062 200.43834187 15.82725769 201.5625 13 C203.18423234 8.76642505 204.12631883 4.44035608 205 0 C205.33 0 205.66 0 206 0 C206.86509602 13.32888683 203.75968528 26.06282844 198 38 C197.70963867 38.61875 197.41927734 39.2375 197.12011719 39.875 C192.77504265 49.11561542 187.92767098 57.65977785 182 66 C181.21952401 67.11942367 180.43959607 68.23922961 179.66015625 69.359375 C171.67151589 80.76283628 163.02271266 91.6303783 154.1640625 102.3671875 C152.72971785 104.11222052 151.30762378 105.86740069 149.8984375 107.6328125 C144.54688871 114.30765335 138.83858062 120.56352542 132.98828125 126.796875 C130.79539746 129.13613092 128.65168627 131.50452359 126.5625 133.9375 C123.12911668 137.89447428 119.60685772 141.76753483 116.0625 145.625 C115.48894775 146.25913818 114.91539551 146.89327637 114.32446289 147.54663086 C110.25364719 151.94895934 105.90674601 155.55865676 101 159 C95.13270306 153.34911975 89.7303738 147.59716853 84.7265625 141.16796875 C82.6601633 138.57328197 80.37351563 136.31562501 78 134 C74.96385683 130.69884243 71.98030866 127.35155819 69 124 C68.09894531 122.99066406 68.09894531 122.99066406 67.1796875 121.9609375 C63.0505222 117.29402044 59.11225839 112.4847363 55.18359375 107.6484375 C53.35270187 105.4277851 51.48332714 103.26728721 49.5625 101.125 C46.04461963 97.15610932 42.83889109 92.96843784 39.63891602 88.74267578 C37.59356717 86.04610239 35.51221733 83.40191488 33.3203125 80.82421875 C31.55928811 78.68074967 30.22573952 76.88308607 29 74.4375 C27.18193475 70.95972634 27.18193475 70.95972634 24.5 68.5625 C22.03164638 66.03243754 20.75359923 63.72022598 19.2890625 60.53515625 C17.94823124 57.8981881 16.40261891 55.43926468 14.81396484 52.94604492 C9.39837366 44.36672542 5.93466697 35.68440099 3 26 C2.48953125 24.39125 2.48953125 24.39125 1.96875 22.75 C-0.21627868 15.14286311 -0.31460711 7.87682984 0 0 Z " transform="translate(149,242)" style="fill: #9C4947;"/><path d="M0 0 C3.63 0.33 7.26 0.66 11 1 C11.33 2.32 11.66 3.64 12 5 C12.66 5 13.32 5 14 5 C14 4.34 14 3.68 14 3 C15.916588 2.97287847 17.8332873 2.95354903 19.75 2.9375 C21.35101563 2.92009766 21.35101563 2.92009766 22.984375 2.90234375 C26 3 26 3 27.71606445 3.47119141 C30.96870616 4.22428835 34.23545501 4.37444134 37.55859375 4.55859375 C38.30217636 4.60084579 39.04575897 4.64309784 39.81187439 4.68663025 C48.56099178 5.14006542 57.30445267 5.10973481 66.0625 5.0625 C67.71939966 5.05746482 69.37630083 5.05290555 71.03320312 5.04882812 C75.02217416 5.03800562 79.01106935 5.02085757 83 5 C83.02497996 9.37418249 83.04299062 13.74832563 83.05493164 18.12255859 C83.05991708 19.60628992 83.06670785 21.09001646 83.07543945 22.57373047 C83.19134133 42.79519874 83.19134133 42.79519874 82 47 C81.01 47.66 80.02 48.32 79 49 C77.515 48.01 77.515 48.01 76 47 C76 46.34 76 45.68 76 45 C74.99815674 45.11263184 74.99815674 45.11263184 73.97607422 45.22753906 C67.29736243 45.91558515 60.82737032 46.06850344 54.125 45.75 C53.1148584 45.70407715 52.1047168 45.6581543 51.06396484 45.61083984 C42.56346602 45.17389229 34.09526684 44.45700733 25.625 43.625 C24.4198877 43.51124023 23.21477539 43.39748047 21.97314453 43.28027344 C7.02913494 41.7151279 7.02913494 41.7151279 2 39 C0.49738785 36.20868924 0.31719744 34.22484066 0 31 C0.66 30.67 1.32 30.34 2 30 C2.1346906 23.05033907 1.75715004 16.28143617 1 9.375 C0.90460938 8.46621094 0.80921875 7.55742188 0.7109375 6.62109375 C0.47856685 4.41357253 0.23995292 2.20670992 0 0 Z " transform="translate(215,116)" style="fill: #2E2E2E;"/><path d="M0 0 C10.61649641 -0.95429181 22.08171171 8.91346801 30 15 C31.95484797 16.42147223 33.91315282 17.83820343 35.875 19.25 C42.99424439 24.39285714 42.99424439 24.39285714 46 27 C46 27.66 46 28.32 46 29 C46.66 29.185625 47.32 29.37125 48 29.5625 C50.8421413 30.92435937 52.31132414 32.12101741 54.5625 34.25 C59.42533418 38.70215336 65.04186722 41.28904958 71 44 C69.62313762 47.19653477 68.13756103 48.95404184 65.4375 51.125 C50.50544133 63.90468985 41.78746173 79.84016862 35 98 C32.66627522 94.49941282 31.51044014 90.88968771 30.1875 86.9375 C28.21175308 81.16470912 26.01986878 75.7827962 23.15234375 70.38671875 C21.37043143 66.69604612 20.20411699 62.83611086 18.9609375 58.9375 C17.21819984 53.61010684 15.0527884 48.45888544 12.84765625 43.30859375 C0 13.13917732 0 13.13917732 0 0 Z " transform="translate(117,105)" style="fill: #9D4A49;"/><path d="M0 0 C0.372764 6.28497437 -0.98310982 11.66014253 -2.6875 17.6875 C-2.96150635 18.67137695 -3.2355127 19.65525391 -3.51782227 20.66894531 C-5.21033821 26.60625395 -7.11535353 32.30715786 -9.6484375 37.9453125 C-11.42237205 41.95460966 -12.98792112 46.03409254 -14.5625 50.125 C-15.16632446 51.68763228 -15.77048065 53.25013642 -16.375 54.8125 C-16.79845703 55.90691406 -16.79845703 55.90691406 -17.23046875 57.0234375 C-18.15517185 59.39856322 -19.1049151 61.76295725 -20.0625 64.125 C-24.38938273 74.94220683 -28.53319375 85.5747921 -31 97 C-34 96 -34 96 -34.94799805 94.33276367 C-35.21652588 93.61838135 -35.48505371 92.90399902 -35.76171875 92.16796875 C-36.07157715 91.37527588 -36.38143555 90.58258301 -36.70068359 89.76586914 C-37.02633301 88.91500732 -37.35198242 88.06414551 -37.6875 87.1875 C-42.62261526 74.94089182 -49.44928376 65.31874364 -58.09375 55.3984375 C-60 53 -60 53 -60 51 C-49.56040395 52.22818777 -40.91381793 57.14135779 -33 64 C-33.73669922 62.28490234 -33.73669922 62.28490234 -34.48828125 60.53515625 C-36.87582638 53.37252085 -36.31828039 45.88869189 -36.1875 38.4375 C-36.17242392 36.93686241 -36.15874069 35.43621015 -36.14648438 33.93554688 C-36.11371482 30.29005548 -36.06209479 26.64512365 -36 23 C-36.66 23 -37.32 23 -38 23 C-36.735799 19.20739699 -35.23939782 18.46857596 -32 16.1875 C-31.00226563 15.48367187 -30.00453125 14.77984375 -28.9765625 14.0546875 C-27.99429688 13.37664062 -27.01203125 12.69859375 -26 12 C-25.20335937 11.44570312 -24.40671875 10.89140625 -23.5859375 10.3203125 C-8.45304404 0 -8.45304404 0 0 0 Z " transform="translate(386,105)" style="fill: #9D4947;"/><path d="M0 0 C-0.66 0.66 -1.32 1.32 -2 2 C-1.01 2.33 -0.02 2.66 1 3 C2.40007025 5.22069966 3.59060476 7.34723924 4.75 9.6875 C5.07871094 10.30044922 5.40742188 10.91339844 5.74609375 11.54492188 C7.87077577 15.77187365 8.25927519 18.44562141 7 23 C4.36 23.66 1.72 24.32 -1 25 C0.98 25 2.96 25 5 25 C4.67 26.32 4.34 27.64 4 29 C4.99 29.33 5.98 29.66 7 30 C7.39605306 34.48860134 6.37843078 37.19451075 4 41 C0.34625664 44.82368491 -2.67693121 46.8480701 -7.9140625 47.19921875 C-13.02188414 46.71139309 -16.84831638 44.21393679 -20.3125 40.5625 C-25.98709506 31.94552232 -26.84426832 25.39362762 -26 15 C-25.06627437 11.71347067 -23.80937257 8.89257555 -22 6 C-21.59007812 5.29746094 -21.18015625 4.59492188 -20.7578125 3.87109375 C-18.31402346 1.26981608 -16.1476029 0.9337967 -12.6875 0.1875 C-11.57761719 -0.06644531 -10.46773437 -0.32039062 -9.32421875 -0.58203125 C-5.93060441 -1.00872542 -3.32218116 -0.73882092 0 0 Z " transform="translate(207,174)" style="fill: #7D2A19;"/><path d="M0 0 C7.06759371 2.97509379 11.69641674 9.09662263 15.1796875 15.7578125 C17.40057974 21.44127763 17.00496382 26.52204049 15.9765625 32.45703125 C14.9865625 31.96203125 14.9865625 31.96203125 13.9765625 31.45703125 C13.65732895 29.27855789 13.42191424 27.0875871 13.2265625 24.89453125 C12.38293872 18.48560641 11.1857697 13.6007188 5.9765625 9.45703125 C2.42037427 8.31181809 0.44683692 7.74560814 -2.9609375 9.39453125 C-4.64919845 12.67174368 -4.67369656 15.9056164 -4.0234375 19.45703125 C-2.43816769 22.04412997 -2.43816769 22.04412997 -0.0234375 23.45703125 C1.2965625 23.45703125 2.6165625 23.45703125 3.9765625 23.45703125 C4.9665625 20.48703125 5.9565625 17.51703125 6.9765625 14.45703125 C7.9665625 14.78703125 8.9565625 15.11703125 9.9765625 15.45703125 C12.74007784 22.91852268 12.42369766 30.34412079 9.7890625 37.83203125 C7.1929014 41.59198871 4.10842362 44.39110069 -0.0234375 46.45703125 C-5.84079034 47.05882637 -9.35538157 46.42444183 -14.1953125 43.08984375 C-18.84138632 38.94014533 -21.80233899 33.447298 -22.26171875 27.234375 C-22.42517336 18.7777497 -22.52173034 10.40285833 -16.4921875 3.7734375 C-11.37579947 -0.65324136 -6.52539505 -1.75102299 0 0 Z " transform="translate(305.0234375,174.54296875)" style="fill: #7B2616;"/><path d="M0 0 C0.33 2.31 0.66 4.62 1 7 C8.60316742 8.67876051 16.19673408 9.74810636 23.9375 10.5625 C25.777677 10.75646362 25.777677 10.75646362 27.6550293 10.9543457 C43.39648883 12.4885417 59.19445065 12.74627012 75 13 C75 13.66 75 14.32 75 15 C78.04913228 16.01111093 78.04913228 16.01111093 81 15 C80.1875 16.9375 80.1875 16.9375 79 19 C69.16174474 22.27941842 56.15989901 19.70839744 45.86450195 19.20043945 C43.07193831 19.06296464 40.279168 18.93055891 37.48632812 18.79882812 C28.88985627 18.38630867 20.31108742 17.94105301 11.73803711 17.16308594 C8.64027616 16.97857374 5.59969055 17.06414997 2.5 17.1875 C-1.48173344 17.24520628 -2.63409496 17.2389584 -6.0625 15 C-6.701875 14.34 -7.34125 13.68 -8 13 C-8.99 13 -9.98 13 -11 13 C-12.32 16.3 -13.64 19.6 -15 23 C-13.63875 23.0928125 -13.63875 23.0928125 -12.25 23.1875 C-8.09151741 24.22712065 -7.33865467 25.45429777 -5 29 C-4.36384766 29.90492188 -4.36384766 29.90492188 -3.71484375 30.828125 C1.13011914 38.00375517 2.99337814 45.34556926 2 54 C0.89638565 58.40689839 -0.08344114 61.38896076 -4 64 C-3.67 61.36 -3.34 58.72 -3 56 C-3.66 55.67 -4.32 55.34 -5 55 C-5.33 54.01 -5.66 53.02 -6 52 C-7.65 51.67 -9.3 51.34 -11 51 C-7.99580359 49.9986012 -5.12290635 49.48578543 -2 49 C-2.30914777 42.50789679 -3.50370362 38.36940524 -6.94140625 32.84765625 C-8 31 -8 31 -8 29 C-9.98 29 -11.96 29 -14 29 C-13.01 28.01 -12.02 27.02 -11 26 C-18.55038422 26.65349633 -18.55038422 26.65349633 -26 28 C-23.47211993 25.20127563 -21.79588866 23.54226981 -18 23 C-18 21.68 -18 20.36 -18 19 C-16.70427617 16.97543152 -15.3726682 14.97321053 -14 13 C-14 12.34 -14 11.68 -14 11 C-15.65 10.67 -17.3 10.34 -19 10 C-14.11298914 5.61854199 -6.75172106 0 0 0 Z " transform="translate(216,148)" style="fill: #CECFCE;"/><path d="M0 0 C1.47583955 0.0001591 2.95168467 0.00585225 4.42749023 0.01586914 C5.20293686 0.01728409 5.97838348 0.01869904 6.77732849 0.02015686 C9.26361893 0.02577194 11.74982059 0.03832693 14.23608398 0.05102539 C15.91772331 0.05603845 17.59936405 0.06060169 19.28100586 0.06469727 C23.41189965 0.07574626 27.54272674 0.09302094 31.67358398 0.11352539 C31.67358398 4.86462862 30.73896263 5.78484391 27.79858398 9.36352539 C27.07928711 10.25555664 26.35999023 11.14758789 25.61889648 12.06665039 C24.6559668 13.07985352 24.6559668 13.07985352 23.67358398 14.11352539 C23.01358398 14.11352539 22.35358398 14.11352539 21.67358398 14.11352539 C21.67358398 14.77352539 21.67358398 15.43352539 21.67358398 16.11352539 C21.01358398 16.50540039 20.35358398 16.89727539 19.67358398 17.30102539 C17.31112154 19.04829765 17.31112154 19.04829765 17.23608398 22.48852539 C17.81424711 27.27901987 18.78512864 29.60506411 22.59545898 32.64868164 C29.50605276 37.4980121 36.6046734 39.92819544 44.67358398 42.11352539 C44.67358398 42.77352539 44.67358398 43.43352539 44.67358398 44.11352539 C34.91220498 43.77808281 27.18331786 41.96654986 18.86108398 36.80102539 C15.19431575 34.85979515 14.50464487 34.95450101 10.67358398 36.11352539 C8.06824748 37.4658051 8.06824748 37.4658051 5.54858398 39.11352539 C-1.09106913 43.31123922 -6.54481746 43.72867152 -14.32641602 43.11352539 C-16.70094729 42.36137184 -18.23953763 41.50477765 -20.32641602 40.11352539 C-20.32641602 39.45352539 -20.32641602 38.79352539 -20.32641602 38.11352539 C-19.70766602 38.27852539 -19.08891602 38.44352539 -18.45141602 38.61352539 C-10.59267941 39.87092325 -5.0835992 39.62985039 1.86108398 35.50024414 C3.93986248 34.06485411 3.93986248 34.06485411 5.67358398 31.11352539 C6.33358398 31.11352539 6.99358398 31.11352539 7.67358398 31.11352539 C9.48801349 27.12178049 10.59491407 23.51904036 10.67358398 19.11352539 C8.63409272 16.40551942 8.63409272 16.40551942 5.67358398 14.11352539 C3.60200401 12.16778906 1.63911166 10.17047295 -0.32641602 8.11352539 C-0.32641602 7.45352539 -0.32641602 6.79352539 -0.32641602 6.11352539 C-1.31641602 5.78352539 -2.30641602 5.45352539 -3.32641602 5.11352539 C-4.07641602 3.11352539 -4.07641602 3.11352539 -4.32641602 1.11352539 C-3.32641602 0.11352539 -3.32641602 0.11352539 0 0 Z " transform="translate(236.326416015625,227.886474609375)" style="fill: #2A2A2A;"/><path d="M0 0 C1.13192031 3.39576093 0.89720947 3.86788179 -0.4375 7 C-1.56692836 9.67416223 -2 11.02545489 -2 14 C-1.06800781 13.73445312 -0.13601563 13.46890625 0.82421875 13.1953125 C13.58873179 9.62731916 25.67496539 7.60744579 39 8 C38.67 8.99 38.34 9.98 38 11 C36.8140625 11.09796875 35.628125 11.1959375 34.40625 11.296875 C24.67255058 12.17192781 15.45206018 13.59860678 6.02734375 16.1953125 C3 17 3 17 1 17 C1.33 18.32 1.66 19.64 2 21 C2.61101562 21.07476562 3.22203125 21.14953125 3.8515625 21.2265625 C19.4262179 23.46404821 35.07346438 27.59003199 49 35 C49 35.66 49 36.32 49 37 C44.25624327 36.39611686 40.1467776 34.97961685 35.75 33.1875 C24.54796025 28.80197006 12.93229713 26.35716443 1 25 C4.54406757 33.06246677 9.98898808 35.52007763 17.8125 38.875 C20.06181393 39.89658515 22.30791676 40.92526948 24.55078125 41.9609375 C25.64729004 42.4672168 26.74379883 42.97349609 27.87353516 43.49511719 C32.23647013 45.59515867 36.3896602 47.94509347 40.5 50.5 C41.15718018 50.89687012 41.81436035 51.29374023 42.49145508 51.70263672 C46.77503233 54.43370207 46.77503233 54.43370207 47.90625 57.28125 C47.95265625 58.13203125 47.95265625 58.13203125 48 59 C44.37721599 57.67678456 41.42658912 56.05005306 38.25 53.875 C31.53828701 49.52096815 24.40318651 46.3240015 17.14990234 42.99951172 C13.7370605 41.41284643 10.3658607 39.74608937 7 38.0625 C5.865625 37.49660156 4.73125 36.93070313 3.5625 36.34765625 C1 35 1 35 0 34 C-0.05534912 34.6705542 -0.11069824 35.3411084 -0.16772461 36.03198242 C-0.42134011 39.08407737 -0.67937638 42.13578314 -0.9375 45.1875 C-1.02451172 46.24259766 -1.11152344 47.29769531 -1.20117188 48.38476562 C-1.28818359 49.40634766 -1.37519531 50.42792969 -1.46484375 51.48046875 C-1.543396 52.41785889 -1.62194824 53.35524902 -1.70288086 54.32104492 C-1.99175487 56.92565835 -2.44576831 59.43997744 -3 62 C-3.33 62 -3.66 62 -4 62 C-4.1017192 54.45617231 -4.17159975 46.9125226 -4.21972656 39.36816406 C-4.23979728 36.8036437 -4.26706001 34.23916885 -4.30175781 31.67480469 C-4.35047355 27.98100529 -4.37301513 24.28781291 -4.390625 20.59375 C-4.41127014 19.4538562 -4.43191528 18.3139624 -4.45318604 17.13952637 C-4.45510641 10.27150062 -3.61357155 5.87674267 0 0 Z " transform="translate(365,203)" style="fill: #94827D;"/><path d="M0 0 C10.89 0 21.78 0 33 0 C30.35544006 5.28911988 28.04819488 8.5166224 22.875 11.375 C19.78668884 13.17173122 18.46480858 14.33779085 17.5 17.8125 C17.2525 19.3903125 17.2525 19.3903125 17 21 C16.67 21 16.34 21 16 21 C15.79375 19.906875 15.5875 18.81375 15.375 17.6875 C13.63513873 13.02150842 12.40238094 13.03813932 8 11 C5.10926745 8.54079767 2.36289841 5.97461322 0 3 C0 2.01 0 1.02 0 0 Z " transform="translate(234,229)" style="fill: #0B0B0B;"/><path d="M0 0 C1.35404497 -0.02763357 2.70826555 -0.04667422 4.0625 -0.0625 C4.81660156 -0.07410156 5.57070312 -0.08570313 6.34765625 -0.09765625 C9 0 9 0 12.14453125 0.48632812 C16.23391334 1.03116475 20.22135366 1.22204758 24.33984375 1.31640625 C25.10680069 1.33718735 25.87375763 1.35796844 26.66395569 1.37937927 C29.08838872 1.44420832 31.51292013 1.50344621 33.9375 1.5625 C35.59180662 1.60574879 37.24610367 1.64936499 38.90039062 1.69335938 C42.93349566 1.79982024 46.96669859 1.90127062 51 2 C51 2.66 51 3.32 51 4 C54.04913228 5.01111093 54.04913228 5.01111093 57 4 C56.34 5.32 55.68 6.64 55 8 C52.8959118 8.02764495 50.79171032 8.04667887 48.6875 8.0625 C47.51574219 8.07410156 46.34398437 8.08570313 45.13671875 8.09765625 C42.07573482 8.07085518 39.07660265 7.83718497 36.03125 7.53125 C28.6393152 6.81388924 21.23189898 6.64752343 13.8125 6.4375 C12.36913147 6.39418434 10.92577197 6.35056654 9.48242188 6.30664062 C5.98837827 6.20095142 2.49423102 6.09932418 -1 6 C-0.67 4.02 -0.34 2.04 0 0 Z " transform="translate(240,159)" style="fill: #B7B6B5;"/><path d="M0 0 C1.9375 0 1.9375 0 4 1 C6.75198472 3.90924099 8.18062578 6.11831808 9 10 C1.32665458 14.49955334 -4.98850325 17.33566274 -14 16 C-15 15 -15 15 -15.09765625 12.27734375 C-15.08605469 11.17519531 -15.07445312 10.07304687 -15.0625 8.9375 C-15.05347656 7.83277344 -15.04445313 6.72804688 -15.03515625 5.58984375 C-15.02355469 4.73519531 -15.01195312 3.88054687 -15 3 C-13.75283203 3.05220703 -13.75283203 3.05220703 -12.48046875 3.10546875 C-11.39378906 3.13253906 -10.30710937 3.15960938 -9.1875 3.1875 C-8.10855469 3.22230469 -7.02960938 3.25710937 -5.91796875 3.29296875 C-2.65270893 2.96513142 -2.02293888 2.43904972 0 0 Z " transform="translate(314,119)" style="fill: #000000;"/><path d="M0 0 C1.40007025 2.22069966 2.59060476 4.34723924 3.75 6.6875 C4.07871094 7.30044922 4.40742188 7.91339844 4.74609375 8.54492188 C6.87077577 12.77187365 7.25927519 15.44562141 6 20 C1.80412788 22.01052206 1.80412788 22.01052206 -1 22 C-5.21638783 19.441402 -8.28215376 16.07676936 -11 12 C-11.1953125 9.73828125 -11.1953125 9.73828125 -11.125 7.3125 C-11.10695312 6.50425781 -11.08890625 5.69601563 -11.0703125 4.86328125 C-11.04710937 4.24839844 -11.02390625 3.63351563 -11 3 C-9.73581754 2.30034557 -8.46334598 1.61565237 -7.1875 0.9375 C-6.47980469 0.55464844 -5.77210938 0.17179688 -5.04296875 -0.22265625 C-3 -1 -3 -1 0 0 Z " transform="translate(208,177)" style="fill: #000000;"/><path d="M0 0 C0.9379541 -0.00451172 1.8759082 -0.00902344 2.84228516 -0.01367188 C8.2580207 -0.00218772 13.45441172 0.33167553 18.8125 1.125 C18.4825 2.775 18.1525 4.425 17.8125 6.125 C13.54411194 6.14991426 9.27576361 6.16796047 5.00732422 6.17993164 C3.55842348 6.18492785 2.10952769 6.19172709 0.66064453 6.20043945 C-14.15906783 6.28725376 -14.15906783 6.28725376 -21.1875 5.125 C-21.5175 3.805 -21.8475 2.485 -22.1875 1.125 C-14.80394172 0.13581516 -7.43685099 0.01484155 0 0 Z " transform="translate(251.1875,220.875)" style="fill: #767676;"/><path d="M0 0 C-2.31668991 6.02553048 -8.43147042 8.42077284 -14 11 C-19.94620114 13.41227631 -26.07479532 15.3114759 -32.1875 17.25 C-33.79143345 17.7695452 -35.39495219 18.29037247 -36.99804688 18.8125 C-42.34029574 20.54836297 -47.68558948 22.27417236 -53.04541016 23.95507812 C-57.41733575 25.28152415 -57.41733575 25.28152415 -61 28 C-61 24 -61 24 -59.5625 21.875 C-57.0208595 20.01526305 -55.91433029 19.63549772 -52.9296875 19.06640625 C-48.02301137 18.04745268 -43.32388421 16.61328163 -38.5625 15.0625 C-36.88568304 14.52130939 -35.20860234 13.98093522 -33.53125 13.44140625 C-32.74234375 13.18762207 -31.9534375 12.93383789 -31.140625 12.67236328 C-28.63104424 11.88411221 -26.10111827 11.1882293 -23.5625 10.5 C-16.72846695 8.48575868 -10.31231286 5.04709464 -4.26953125 1.3125 C-2 0 -2 0 0 0 Z " transform="translate(427,175)" style="fill: #B1B5B6;"/><path d="M0 0 C0 0.99 0 1.98 0 3 C4.455 3.99 4.455 3.99 9 5 C9 5.33 9 5.66 9 6 C3.25 6.125 3.25 6.125 1 5 C-0.74527094 4.90314203 -2.49423215 4.86924012 -4.2421875 4.8671875 C-5.84320313 4.86525391 -5.84320313 4.86525391 -7.4765625 4.86328125 C-8.59804688 4.86714844 -9.71953125 4.87101562 -10.875 4.875 C-11.9578125 4.87113281 -13.040625 4.86726563 -14.15625 4.86328125 C-19.45676725 4.86960645 -24.68215578 5.01197207 -29.9609375 5.50390625 C-36.56395753 6.11318145 -43.1235309 6.11122404 -49.75 6.0625 C-50.9359375 6.05798828 -52.121875 6.05347656 -53.34375 6.04882812 C-56.22922228 6.03719316 -59.11458213 6.0208484 -62 6 C-62 5.67 -62 5.34 -62 5 C-60.48599609 4.83564453 -60.48599609 4.83564453 -58.94140625 4.66796875 C-57.48173554 4.50813446 -56.02210368 4.34794522 -54.5625 4.1875 C-53.37575684 4.05710327 -53.37575684 4.05710327 -52.16503906 3.92407227 C-46.27093826 3.26936015 -40.38458702 2.56140279 -34.4987793 1.83618164 C-6.59367994 -1.58825867 -6.59367994 -1.58825867 0 0 Z " transform="translate(270,93)" style="fill: #A7A6A6;"/><path d="M0 0 C1.13192031 3.39576093 0.89720947 3.86788179 -0.4375 7 C-1.56692836 9.67416223 -2 11.02545489 -2 14 C-1.06800781 13.73445312 -0.13601563 13.46890625 0.82421875 13.1953125 C13.58873179 9.62731916 25.67496539 7.60744579 39 8 C38.67 8.99 38.34 9.98 38 11 C36.8140625 11.09796875 35.628125 11.1959375 34.40625 11.296875 C24.67255058 12.17192781 15.45206018 13.59860678 6.02734375 16.1953125 C3 17 3 17 1 17 C1.33 18.32 1.66 19.64 2 21 C4.97 21.33 7.94 21.66 11 22 C11 22.33 11 22.66 11 23 C6.71 23 2.42 23 -2 23 C-1.67 20.69 -1.34 18.38 -1 16 C-1.99 16 -2.98 16 -4 16 C-4.46450943 9.49686791 -3.32575612 5.5825192 0 0 Z " transform="translate(365,203)" style="fill: #AFAFAE;"/><path d="M0 0 C1.1240625 -0.02191406 2.248125 -0.04382813 3.40625 -0.06640625 C6.5 0.5625 6.5 0.5625 8.7421875 2.859375 C9.32226562 3.75140625 9.90234375 4.6434375 10.5 5.5625 C10.96664062 6.20832031 11.43328125 6.85414063 11.9140625 7.51953125 C16.61590064 14.72396065 18.48922021 21.94429362 17.5 30.5625 C16.39638565 34.96939839 15.41655886 37.95146076 11.5 40.5625 C11.83 37.9225 12.16 35.2825 12.5 32.5625 C11.84 32.2325 11.18 31.9025 10.5 31.5625 C10.17 30.5725 9.84 29.5825 9.5 28.5625 C7.85 28.2325 6.2 27.9025 4.5 27.5625 C7.50419641 26.5611012 10.37709365 26.04828543 13.5 25.5625 C13.19085223 19.07039679 11.99629638 14.93190524 8.55859375 9.41015625 C7.5 7.5625 7.5 7.5625 7.5 5.5625 C5.52 5.5625 3.54 5.5625 1.5 5.5625 C2.49 4.5725 3.48 3.5825 4.5 2.5625 C-3.05038422 3.21599633 -3.05038422 3.21599633 -10.5 4.5625 C-7.25719719 0.56463281 -5.08967683 -0.00583679 0 0 Z " transform="translate(200.5,171.4375)" style="fill: #C1AEAA;"/><path d="M0 0 C0.33 0 0.66 0 1 0 C1 4.62 1 9.24 1 14 C0.34 13.67 -0.32 13.34 -1 13 C-1 10.69 -1 8.38 -1 6 C-24.220202 10.9001327 -24.220202 10.9001327 -46.859375 17.93359375 C-50 19 -50 19 -53 19 C-52.67 18.01 -52.34 17.02 -52 16 C-49.47265625 14.7890625 -49.47265625 14.7890625 -46.0625 13.625 C-45.44568359 13.41439941 -44.82886719 13.20379883 -44.19335938 12.98681641 C-13.19175992 2.62478527 -13.19175992 2.62478527 0 3 C0 2.01 0 1.02 0 0 Z " transform="translate(139,221)" style="fill: #A5A5A4;"/><path d="M0 0 C0 4.62 0 9.24 0 14 C-0.33 14 -0.66 14 -1 14 C-1.33 9.71 -1.66 5.42 -2 1 C-16.70442597 6.72899713 -30.46878283 14.39764423 -44.10058594 22.30761719 C-48.78841323 25 -48.78841323 25 -51 25 C-49.47937753 20.43813258 -46.02795189 19.0512404 -42.0625 16.5625 C-41.2379834 16.04478027 -40.4134668 15.52706055 -39.56396484 14.99365234 C-32.30830356 10.57050752 -24.80397481 6.75555949 -17.125 3.125 C-16.00230713 2.58302979 -14.87961426 2.04105957 -13.72290039 1.48266602 C-12.66192139 0.99596436 -11.60094238 0.5092627 -10.5078125 0.0078125 C-9.56566895 -0.42901855 -8.62352539 -0.86584961 -7.65283203 -1.31591797 C-5 -2 -5 -2 0 0 Z " transform="translate(141,237)" style="fill: #BBBBBA;"/><path d="M0 0 C20.37793952 4.09485782 39.51068008 10.38555364 58 20 C58.66 19.34 59.32 18.68 60 18 C60 19.98 60 21.96 60 24 C54.78220043 21.92963786 49.5785807 19.83099703 44.3984375 17.66796875 C32.5449653 12.76595787 20.78003767 8.47358194 8.35302734 5.24487305 C7.40121582 4.9900415 6.4494043 4.73520996 5.46875 4.47265625 C4.62763672 4.25875244 3.78652344 4.04484863 2.91992188 3.82446289 C2.28634766 3.55239014 1.65277344 3.28031738 1 3 C0.67 2.01 0.34 1.02 0 0 Z " transform="translate(78,179)" style="fill: #AFADAD;"/><path d="M0 0 C0.76570313 0.71800781 1.53140625 1.43601563 2.3203125 2.17578125 C6.68229664 5.8065141 11.73730068 7.86959844 16.875 10.1875 C24.24955574 13.6189858 31.44808754 17.1644256 38.375 21.4375 C39.03999512 21.83799561 39.70499023 22.23849121 40.39013672 22.65112305 C44.77556369 25.43890922 44.77556369 25.43890922 45.9140625 28.28515625 C45.94242187 28.85105469 45.97078125 29.41695313 46 30 C42.37721599 28.67678456 39.42658912 27.05005306 36.25 24.875 C31.54866401 21.82514273 26.7624572 19.34338255 21.6875 17 C20.96788086 16.66766357 20.24826172 16.33532715 19.50683594 15.99291992 C18.05493711 15.32462421 16.60262717 14.65722093 15.14990234 13.99072266 C11.74961179 12.42379339 8.36787297 10.82285928 5 9.1875 C3.865625 8.64480469 2.73125 8.10210937 1.5625 7.54296875 C-1 6 -1 6 -2 3 C-1.34 3 -0.68 3 0 3 C0 2.01 0 1.02 0 0 Z " transform="translate(367,232)" style="fill: #B2B4B4;"/><path d="M0 0 C15.12820303 0.22953136 28.92837581 3.53125514 43 9 C42.67 10.98 42.34 12.96 42 15 C41.505 13.02 41.505 13.02 41 11 C40.46375 10.90203125 39.9275 10.8040625 39.375 10.703125 C34.64594578 9.80087124 29.98914893 8.75363833 25.33203125 7.52929688 C16.92465592 5.32581649 8.64255763 3.94372756 0 3 C0 2.01 0 1.02 0 0 Z " transform="translate(99,206)" style="fill: #B3B1AF;"/><path d="M0 0 C13.30321119 1.88837955 25.98300545 6.01696246 38 12 C38 12.66 38 13.32 38 14 C33.25652182 13.39615232 29.14626359 11.9806547 24.75 10.1875 C16.04300209 6.75891266 7.16152275 4.80261443 -2 3 C-1.34 2.01 -0.68 1.02 0 0 Z " transform="translate(376,226)" style="fill: #AFB2B2;"/><path d="M0 0 C1.47583955 0.0001591 2.95168467 0.00585225 4.42749023 0.01586914 C5.20293686 0.01728409 5.97838348 0.01869904 6.77732849 0.02015686 C9.26361893 0.02577194 11.74982059 0.03832693 14.23608398 0.05102539 C15.91772331 0.05603845 17.59936405 0.06060169 19.28100586 0.06469727 C23.41189965 0.07574626 27.54272674 0.09302094 31.67358398 0.11352539 C31.67358398 4.86462862 30.73896263 5.78484391 27.79858398 9.36352539 C27.07928711 10.25555664 26.35999023 11.14758789 25.61889648 12.06665039 C24.6559668 13.07985352 24.6559668 13.07985352 23.67358398 14.11352539 C23.01358398 14.11352539 22.35358398 14.11352539 21.67358398 14.11352539 C21.67358398 14.77352539 21.67358398 15.43352539 21.67358398 16.11352539 C21.01874023 16.5427832 20.36389648 16.97204102 19.68920898 17.41430664 C17.42196045 18.94923753 17.42196045 18.94923753 17.28295898 21.59399414 C17.32936523 22.48731445 17.37577148 23.38063477 17.42358398 24.30102539 C17.47772461 25.65260742 17.47772461 25.65260742 17.53295898 27.03149414 C17.57936523 27.71856445 17.62577148 28.40563477 17.67358398 29.11352539 C15.06873597 26.50867737 15.1609311 25.06382632 14.92358398 21.42602539 C14.96513979 17.55671772 14.98891254 15.81248789 17.73217773 13.01196289 C20.36108398 11.30102539 20.36108398 11.30102539 22.99780273 9.90649414 C26.5526125 7.75226654 26.5526125 7.75226654 30.67358398 1.11352539 C19.78358398 1.11352539 8.89358398 1.11352539 -2.32641602 1.11352539 C-1.66641602 2.76352539 -1.00641602 4.41352539 -0.32641602 6.11352539 C-1.31641602 5.78352539 -2.30641602 5.45352539 -3.32641602 5.11352539 C-4.07641602 3.11352539 -4.07641602 3.11352539 -4.32641602 1.11352539 C-3.32641602 0.11352539 -3.32641602 0.11352539 0 0 Z " transform="translate(236.326416015625,227.886474609375)" style="fill: #BBBBBA;"/><path d="M0 0 C0.33 2.31 0.66 4.62 1 7 C1.99 7.33 2.98 7.66 4 8 C2.35 8 0.7 8 -1 8 C-1 7.34 -1 6.68 -1 6 C-1.99 6 -2.98 6 -4 6 C-4.33 7.65 -4.66 9.3 -5 11 C-9.21878192 11.19622241 -12.17010894 10.80230168 -16 9 C-12.1305235 4.45757106 -6.1119872 0 0 0 Z " transform="translate(216,148)" style="fill: #C6C8C9;"/><path d="M0 0 C0.4846875 0.38671875 0.969375 0.7734375 1.46875 1.171875 C9.5378572 7.4409506 17.07562652 10.59187997 27 13 C27 13.66 27 14.32 27 15 C18.67976592 14.7140813 9.21973116 14.21973116 3 8 C3.99 8 4.98 8 6 8 C5.195625 7.236875 4.39125 6.47375 3.5625 5.6875 C1 3 1 3 0 0 Z " transform="translate(254,257)" style="fill: #7E7E7E;"/><path d="M0 0 C4.61309925 5.5357191 8.07061746 11.40344533 7.95703125 18.796875 C7.72085699 21.22022824 7.41561185 23.60146896 7 26 C6.34 25.67 5.68 25.34 5 25 C4.68076645 22.82152664 4.44535174 20.63055585 4.25 18.4375 C3.41047827 12.05973804 2.22524706 7.09962694 -3 3 C-6.63147485 1.9434891 -6.63147485 1.9434891 -10 2 C-10.66 1.67 -11.32 1.34 -12 1 C-9.22036907 -1.77963093 -3.39894022 -1.13298007 0 0 Z " transform="translate(314,181)" style="fill: #D9D9D8;"/><path d="M0 0 C5.67690937 -0.14670665 10.81680383 0.31647544 16.375 1.4375 C17.08527344 1.57220703 17.79554688 1.70691406 18.52734375 1.84570312 C23.70579387 2.85289693 23.70579387 2.85289693 26 4 C28.01701292 10.86033408 28.27714317 17.90205554 28 25 C21.56971459 26.32388229 15.5705166 27.24794402 9 27 C14.3341661 23.68635136 20.92827505 24.33731805 27 24 C26.34 17.73 25.68 11.46 25 5 C23.47375 4.896875 21.9475 4.79375 20.375 4.6875 C13.44922294 4.07348065 6.76310751 2.5698308 0 1 C0 0.67 0 0.34 0 0 Z " transform="translate(189,111)" style="fill: #B3A9A7;"/><path d="M0 0 C11.06746256 -0.43496578 21.17295538 0.77363097 32 3 C30.7421875 4.48046875 30.7421875 4.48046875 29 6 C22.31459707 6.5391454 22.31459707 6.5391454 18.76171875 5.08203125 C15.13893656 3.66263851 11.5092753 3.04440836 7.6875 2.375 C6.94693359 2.2409375 6.20636719 2.106875 5.44335938 1.96875 C3.62974956 1.64113016 1.81498476 1.31991506 0 1 C0 0.67 0 0.34 0 0 Z " transform="translate(197,111)" style="fill: #171717;"/><path d="M0 0 C0.33 0 0.66 0 1 0 C1.05397335 2.4377963 1.09365616 4.87439685 1.125 7.3125 C1.15013672 8.34793945 1.15013672 8.34793945 1.17578125 9.40429688 C1.21217794 13.17135396 1.14378864 14.78431704 -1 18 C-1.48210937 17.57847656 -1.96421875 17.15695313 -2.4609375 16.72265625 C-3.40839844 15.90087891 -3.40839844 15.90087891 -4.375 15.0625 C-5.31472656 14.24458984 -5.31472656 14.24458984 -6.2734375 13.41015625 C-7.95632334 11.93041376 -7.95632334 11.93041376 -10 11 C-10.09152344 10.36578125 -10.18304688 9.7315625 -10.27734375 9.078125 C-10.82631662 6.72376365 -10.82631662 6.72376365 -13.50390625 5.734375 C-15.01791016 5.24710937 -15.01791016 5.24710937 -16.5625 4.75 C-17.57441406 4.41484375 -18.58632813 4.0796875 -19.62890625 3.734375 C-20.41136719 3.49203125 -21.19382812 3.2496875 -22 3 C-17.51990675 1.41028949 -14.68616622 2.9645066 -10.484375 4.7421875 C-7.1463616 6.43218799 -4.70940123 8.43319884 -2 11 C-0.85185003 8.70370006 -0.69230191 6.92301914 -0.4375 4.375 C-0.35371094 3.55773437 -0.26992188 2.74046875 -0.18359375 1.8984375 C-0.09271484 0.95871094 -0.09271484 0.95871094 0 0 Z " transform="translate(329,105)" style="fill: #6B6B6B;"/><path d="M0 0 C0.99 0 1.98 0 3 0 C3 0.66 3 1.32 3 2 C4.65 2 6.3 2 8 2 C5.61766476 3.2827959 3.40889449 4.18544487 0.8125 5 C-2.12865478 5.67987492 -2.12865478 5.67987492 -3 8 C-4.32 7.67 -5.64 7.34 -7 7 C-8.32 10.3 -9.64 13.6 -11 17 C-10.01 17.33 -9.02 17.66 -8 18 C-9.98 18 -11.96 18 -14 18 C-14.75 16.3125 -14.75 16.3125 -15 14 C-13.71937515 12.2925002 -12.38232443 10.62626404 -11 9 C-10.22166466 6.81785432 -10.22166466 6.81785432 -10 5 C-11.65 4.67 -13.3 4.34 -15 4 C-15 3.67 -15 3.34 -15 3 C-12.66705225 2.95758277 -10.33297433 2.95907063 -8 3 C-7.67 3.33 -7.34 3.66 -7 4 C-5.00041636 4.04080783 -2.99954746 4.04254356 -1 4 C-0.67 2.68 -0.34 1.36 0 0 Z " transform="translate(212,154)" style="fill: #E7EAE8;"/><path d="M0 0 C0.81726563 0.73605469 1.63453125 1.47210938 2.4765625 2.23046875 C6.13251559 5.27709633 10.09782137 7.27445919 14.375 9.3125 C15.47908203 9.85100586 15.47908203 9.85100586 16.60546875 10.40039062 C18.40004002 11.27437014 20.19952337 12.13825168 22 13 C21.67 13.66 21.34 14.32 21 15 C16.4125916 14.35351194 12.51166791 12.54599995 8.375 10.5625 C7.70726562 10.24990234 7.03953125 9.93730469 6.3515625 9.61523438 C3.41670438 8.22704648 0.70609837 6.80406558 -2 5 C-2 4.34 -2 3.68 -2 3 C-1.34 3 -0.68 3 0 3 C0 2.01 0 1.02 0 0 Z " transform="translate(367,232)" style="fill: #B1B3B4;"/><path d="M0 0 C0 1.65 0 3.3 0 5 C0.66 5 1.32 5 2 5 C1.67 8.63 1.34 12.26 1 16 C-0.32 16.33 -1.64 16.66 -3 17 C-3.33 18.32 -3.66 19.64 -4 21 C-4.08086376 18.06195004 -4.1404283 15.12611925 -4.1875 12.1875 C-4.21263672 11.35412109 -4.23777344 10.52074219 -4.26367188 9.66210938 C-4.27333984 8.85966797 -4.28300781 8.05722656 -4.29296875 7.23046875 C-4.3086792 6.49207764 -4.32438965 5.75368652 -4.34057617 4.99291992 C-3.95360485 2.72851351 -2.66126154 0 0 0 Z " transform="translate(145,213)" style="fill: #581409;"/><path d="M0 0 C4.62 0 9.24 0 14 0 C13.67 0.66 13.34 1.32 13 2 C9.04 1.67 5.08 1.34 1 1 C1.33 4.96 1.66 8.92 2 13 C5.63 13.33 9.26 13.66 13 14 C13 14.33 13 14.66 13 15 C9.04 15 5.08 15 1 15 C1.09539062 16.27875 1.19078125 17.5575 1.2890625 18.875 C1.40169702 20.58329025 1.51363934 22.29162624 1.625 24 C1.68945312 24.83917969 1.75390625 25.67835938 1.8203125 26.54296875 C2.16810891 32.15118584 1.63205295 36.61796278 0 42 C-0.33 42 -0.66 42 -1 42 C-0.67 28.14 -0.34 14.28 0 0 Z " transform="translate(298,121)" style="fill: #C6BDBB;"/><path d="M0 0 C2.8408702 1.33244355 5.26402855 2.83929467 7.75 4.75 C8.4409375 5.2759375 9.131875 5.801875 9.84375 6.34375 C12 8 12 8 14.15625 9.65625 C14.8471875 10.1821875 15.538125 10.708125 16.25 11.25 C16.87390625 11.72953125 17.4978125 12.2090625 18.140625 12.703125 C22.5706872 15.79300031 25.55102035 16.20957614 31 16 C29 18 29 18 26.72265625 18.265625 C25.84480469 18.26046875 24.96695313 18.2553125 24.0625 18.25 C23.18722656 18.25515625 22.31195313 18.2603125 21.41015625 18.265625 C19 18 19 18 16 16 C15.67 15.01 15.34 14.02 15 13 C13.20506426 11.83714249 13.20506426 11.83714249 11.0625 10.9375 C8.49112901 9.77548298 7.02316022 9.02316022 5 7 C5 6.01 5 5.02 5 4 C3.35 3.67 1.7 3.34 0 3 C0 2.01 0 1.02 0 0 Z " transform="translate(167,122)" style="fill: #997368;"/><path d="M0 0 C1.12507712 3.37523135 0.90828178 3.97025502 -0.2578125 7.17578125 C-0.55163818 7.99788086 -0.84546387 8.81998047 -1.14819336 9.66699219 C-1.63171265 10.97651855 -1.63171265 10.97651855 -2.125 12.3125 C-2.4454126 13.20227539 -2.7658252 14.09205078 -3.09594727 15.00878906 C-3.74691398 16.81466528 -4.40160663 18.61920284 -5.06005859 20.42236328 C-6.15012884 23.41170396 -7.21806202 26.40851944 -8.28271484 29.40698242 C-9.1826688 31.9400743 -10.09108353 34.47011268 -11 37 C-12.07174763 33.34811918 -11.76411467 30.73567172 -11 27 C-10.34 27 -9.68 27 -9 27 C-9 25.02 -9 23.04 -9 21 C-8.34 20.67 -7.68 20.34 -7 20 C-6.39473231 17.89749117 -5.88882509 15.76584049 -5.4375 13.625 C-4.05572755 7.16718266 -4.05572755 7.16718266 -3 4 C-2.34 4 -1.68 4 -1 4 C-0.67 2.68 -0.34 1.36 0 0 Z " transform="translate(392,129)" style="fill: #B4958D;"/><path d="M0 0 C-0.33 0.99 -0.66 1.98 -1 3 C-10.66543055 4.1922117 -20.28175551 4.09622024 -30 4 C-21.27300722 -0.98087358 -9.7274571 -0.28656993 0 0 Z " transform="translate(404,211)" style="fill: #BEC1C2;"/><path d="M0 0 C2.34375 0.34179688 2.34375 0.34179688 4.6875 0.68359375 C5.450625 0.78800781 6.21375 0.89242188 7 1 C8.155 1.1753125 9.31 1.350625 10.5 1.53125 C15.99009724 2.21305591 21.47663931 2.10743347 27 2.0625 C28.06089844 2.05798828 29.12179687 2.05347656 30.21484375 2.04882812 C32.80995598 2.03713843 35.40494709 2.02075276 38 2 C37.67 2.66 37.34 3.32 37 4 C33.16158183 5.12262575 29.57592051 5.04826201 25.60546875 4.87890625 C23.80239258 4.80639648 23.80239258 4.80639648 21.96289062 4.73242188 C20.71701172 4.67634766 19.47113281 4.62027344 18.1875 4.5625 C16.92228516 4.51029297 15.65707031 4.45808594 14.35351562 4.40429688 C11.23541194 4.27486616 8.11764822 4.13990871 5 4 C5 3.34 5 2.68 5 2 C3.35 1.67 1.7 1.34 0 1 C0 0.67 0 0.34 0 0 Z " transform="translate(229,313)" style="fill: #A98076;"/><path d="M0 0 C0 4.62 0 9.24 0 14 C-0.33 14 -0.66 14 -1 14 C-1.495 7.565 -1.495 7.565 -2 1 C-4.84625 2.2375 -4.84625 2.2375 -7.75 3.5 C-11.59461608 5.17157221 -13.75719508 6 -18 6 C-18 5.34 -18 4.68 -18 4 C-15.94855272 2.93673157 -13.88330392 1.90005943 -11.8125 0.875 C-10.08966797 0.00488281 -10.08966797 0.00488281 -8.33203125 -0.8828125 C-5 -2 -5 -2 0 0 Z " transform="translate(141,237)" style="fill: #B9B0AE;"/><path d="M0 0 C0.33 0 0.66 0 1 0 C1 4.62 1 9.24 1 14 C0.34 13.67 -0.32 13.34 -1 13 C-1 10.69 -1 8.38 -1 6 C-1.53367188 6.15597656 -2.06734375 6.31195313 -2.6171875 6.47265625 C-8.69214313 8.05971213 -13.81834444 7.9549948 -20 7 C-20 6.67 -20 6.34 -20 6 C-17.79344925 5.49219106 -15.58466395 4.99408635 -13.375 4.5 C-12.14523438 4.2215625 -10.91546875 3.943125 -9.6484375 3.65625 C-6.32847772 3.05908379 -3.36091549 2.87590466 0 3 C0 2.01 0 1.02 0 0 Z " transform="translate(139,221)" style="fill: #C2C2C0;"/><path d="M0 0 C0.99 0.33 1.98 0.66 3 1 C5.51578589 7.7926219 5.7691362 15.14884231 3.2578125 22.03515625 C2.4375 23.6875 2.4375 23.6875 1 26 C0.67 25.34 0.34 24.68 0 24 C0.30679687 23.25363281 0.61359375 22.50726563 0.9296875 21.73828125 C2.12714267 18.67471894 2.2038308 16.45897833 2.125 13.1875 C2.10695313 12.21167969 2.08890625 11.23585937 2.0703125 10.23046875 C2.04710937 9.49441406 2.02390625 8.75835937 2 8 C0.35 8.33 -1.3 8.66 -3 9 C-2.01 6.03 -1.02 3.06 0 0 Z " transform="translate(312,189)" style="fill: #BE968D;"/><path d="M0 0 C0.99 0 1.98 0 3 0 C6.05445423 10.45045976 6.05445423 10.45045976 6.5625 15.625 C6.706875 16.73875 6.85125 17.8525 7 19 C7.66 19.33 8.32 19.66 9 20 C10.96281457 23.71901707 11.15081169 25.97215907 10 30 C9.67 30 9.34 30 9 30 C8.71125 28.906875 8.4225 27.81375 8.125 26.6875 C7.18106796 22.95986155 7.18106796 22.95986155 5 20 C4.74239721 17.30547479 4.91099947 14.71451625 5 12 C4.34 12 3.68 12 3 12 C2.49166409 10.75336669 1.99368855 9.50250613 1.5 8.25 C1.2215625 7.55390625 0.943125 6.8578125 0.65625 6.140625 C0 4 0 4 0 0 Z " transform="translate(133,185)" style="fill: #906860;"/><path d="M0 0 C8.52080037 0.39728885 16.72049367 0.78227509 25 3 C25 3.33 25 3.66 25 4 C16.36206266 5.50401732 8.57167907 4.38289756 0 3 C0 2.01 0 1.02 0 0 Z " transform="translate(99,206)" style="fill: #BABABA;"/><path d="M0 0 C0.69867188 0.165 1.39734375 0.33 2.1171875 0.5 C5.19290996 1.03345864 8.00672148 1.06252188 11.125 1 C14.5063602 0.93254144 16.7759903 0.9253301 20 2 C22.14255793 1.61067144 22.14255793 1.61067144 24 1 C21.31331999 3.9425543 19.34492639 4.899082 15.29296875 5.203125 C9.34940935 5.2928391 5.01396593 5.34264395 0 2 C0 1.34 0 0.68 0 0 Z " transform="translate(216,266)" style="fill: #A9A9A9;"/><path d="M0 0 C0.66 0.33 1.32 0.66 2 1 C1.67 1.99 1.34 2.98 1 4 C1.556875 3.67 2.11375 3.34 2.6875 3 C5.30284522 1.8690399 7.1806646 1.84337026 10 2 C9.46375 2.2475 8.9275 2.495 8.375 2.75 C5.85066823 4.01641541 5.85066823 4.01641541 3.125 6 C-0.59311034 8.37959062 -3.87924775 10.33485562 -8.375 9.625 C-8.91125 9.41875 -9.4475 9.2125 -10 9 C-8.09753764 6.88615293 -6.28015735 5.52490385 -3.875 3.9375 C-0.94935958 2.30854547 -0.94935958 2.30854547 0 0 Z " transform="translate(242,259)" style="fill: #818181;"/><path d="M0 0 C4.455 0.99 4.455 0.99 9 2 C9 3.32 9 4.64 9 6 C3.72 5.67 -1.56 5.34 -7 5 C-7 5.66 -7 6.32 -7 7 C-7.66 7 -8.32 7 -9 7 C-9.33 5.68 -9.66 4.36 -10 3 C-6.7 3.33 -3.4 3.66 0 4 C0 2.68 0 1.36 0 0 Z " transform="translate(236,114)" style="fill: #1A1A1A;"/><path d="M0 0 C0 0.66 0 1.32 0 2 C0.66 2.33 1.32 2.66 2 3 C-0.60258324 3.83857688 -3.20685647 4.67103344 -5.8125 5.5 C-6.91948242 5.85771484 -6.91948242 5.85771484 -8.04882812 6.22265625 C-11.13255196 7.19940136 -13.74495809 8 -17 8 C-16.67 7.01 -16.34 6.02 -16 5 C-13.67359006 3.95590957 -11.47250358 3.10309582 -9.0625 2.3125 C-8.09280273 1.97508789 -8.09280273 1.97508789 -7.10351562 1.63085938 C-2.32990597 0 -2.32990597 0 0 0 Z " transform="translate(103,232)" style="fill: #BDBDBD;"/><path d="M0 0 C2.93933089 0.61722952 5.87625379 1.24340471 8.8125 1.875 C9.64587891 2.04902344 10.47925781 2.22304687 11.33789062 2.40234375 C12.14033203 2.57636719 12.94277344 2.75039062 13.76953125 2.9296875 C14.87711792 3.16534424 14.87711792 3.16534424 16.00708008 3.40576172 C18 4 18 4 21 6 C20.67 6.66 20.34 7.32 20 8 C17.415141 7.3808361 14.83223828 6.75492318 12.25 6.125 C11.52039063 5.95097656 10.79078125 5.77695313 10.0390625 5.59765625 C6.46714972 4.72091402 3.20626159 3.87313177 0 2 C0 1.34 0 0.68 0 0 Z " transform="translate(78,179)" style="fill: #B9B9B9;"/><path d="M0 0 C-2.6855594 2.6855594 -5.37621328 3.06049974 -9 4 C-4.71 4.99 -0.42 5.98 4 7 C-0.14416647 8.03604162 -3.02142353 7.91488137 -7.25 7.5625 C-8.51328125 7.46066406 -9.7765625 7.35882813 -11.078125 7.25390625 C-12.04234375 7.17011719 -13.0065625 7.08632812 -14 7 C-14.33 6.01 -14.66 5.02 -15 4 C-13.44219668 3.32243118 -11.87849904 2.65840543 -10.3125 2 C-9.44238281 1.62875 -8.57226562 1.2575 -7.67578125 0.875 C-4.9427998 -0.01870488 -2.85299066 -0.16449676 0 0 Z " transform="translate(185,103)" style="fill: #A7A7A7;"/><path d="M0 0 C3.73487777 0.4979837 5.81237635 0.87491756 9 3 C9 3.66 9 4.32 9 5 C9.763125 5.268125 10.52625 5.53625 11.3125 5.8125 C13.87380884 6.94424112 15.19692938 7.91223401 17 10 C16.01 11.485 16.01 11.485 15 13 C14.41992188 12.46890625 13.83984375 11.9378125 13.2421875 11.390625 C8.99187055 7.54710406 4.8193764 4.08934384 0 1 C0 0.67 0 0.34 0 0 Z " transform="translate(308,159)" style="fill: #8F6E63;"/><path d="M0 0 C2.475 0.99 2.475 0.99 5 2 C5 3.32 5 4.64 5 6 C5.66 6 6.32 6 7 6 C7 6.66 7 7.32 7 8 C7.66 8 8.32 8 9 8 C10.6875 10.25 10.6875 10.25 12 13 C11.58203125 15.171875 11.58203125 15.171875 11 17 C10.45730469 16.25234375 9.91460937 15.5046875 9.35546875 14.734375 C8.64003906 13.74953125 7.92460937 12.7646875 7.1875 11.75 C6.47980469 10.77546875 5.77210938 9.8009375 5.04296875 8.796875 C3.80274443 7.09897708 2.54012838 5.41674819 1.23828125 3.765625 C0 2 0 2 0 0 Z " transform="translate(165,313)" style="fill: #956F68;"/><path d="M0 0 C-1.46977619 3.76886744 -3.38598591 5.24220738 -6.8125 7.3125 C-8.09060547 8.11107422 -8.09060547 8.11107422 -9.39453125 8.92578125 C-12.43260262 10.1783594 -13.9061482 9.94981806 -17 9 C-13.94746898 6.59124922 -10.78648153 4.67456202 -7.375 2.8125 C-6.41335938 2.28269531 -5.45171875 1.75289062 -4.4609375 1.20703125 C-2 0 -2 0 0 0 Z " transform="translate(427,175)" style="fill: #CBCCCC;"/><path d="M0 0 C0.66 0.33 1.32 0.66 2 1 C0.37660195 2.70884005 -1.29319053 4.37446717 -3 6 C-3.66 6 -4.32 6 -5 6 C-5 6.66 -5 7.32 -5 8 C-11.703125 11.22265625 -11.703125 11.22265625 -16 10 C-14.92878906 9.36191406 -13.85757812 8.72382813 -12.75390625 8.06640625 C-11.35672466 7.23184812 -9.95959176 6.39720849 -8.5625 5.5625 C-7.85544922 5.14162109 -7.14839844 4.72074219 -6.41992188 4.28710938 C-3.02016651 2.39973701 -3.02016651 2.39973701 0 0 Z " transform="translate(309,296)" style="fill: #98776D;"/><path d="M0 0 C0.33 0 0.66 0 1 0 C1.30171488 5.53143939 0.71325503 9.62827967 -1.2109375 14.81640625 C-1.95144096 16.86562127 -2.48944149 18.88421091 -3 21 C-3.33 21.99 -3.66 22.98 -4 24 C-4.99 24.33 -5.98 24.66 -7 25 C-5.543373 20.05160047 -4.06113083 15.1256591 -2.375 10.25 C-1.22389428 6.85695015 -0.45705842 3.56505567 0 0 Z " transform="translate(344,239)" style="fill: #9C8682;"/><path d="M0 0 C-2.60396573 1.73597716 -5.17024468 3.23521112 -7.9375 4.6875 C-8.79214844 5.14511719 -9.64679688 5.60273438 -10.52734375 6.07421875 C-13.2407283 7.0901305 -14.34004925 7.01831061 -17 6 C-12.83194758 1.3806298 -6.18215665 -2.3930929 0 0 Z " transform="translate(126,243)" style="fill: #B6B6B6;"/><path d="M0 0 C3.96 0 7.92 0 12 0 C12 0.33 12 0.66 12 1 C8.7 1.33 5.4 1.66 2 2 C1.938125 3.60875 1.87625 5.2175 1.8125 6.875 C1.77769531 7.77992188 1.74289062 8.68484375 1.70703125 9.6171875 C1.80371094 10.40351563 1.90039062 11.18984375 2 12 C2.99 12.66 3.98 13.32 5 14 C4.67 15.32 4.34 16.64 4 18 C2.68 17.34 1.36 16.68 0 16 C0 10.72 0 5.44 0 0 Z " transform="translate(299,136)" style="fill: #7F2E21;"/><path d="M0 0 C2.20004472 0.41780398 4.38631928 0.9093008 6.5625 1.4375 C7.76003906 1.72496094 8.95757812 2.01242187 10.19140625 2.30859375 C11.11824219 2.53675781 12.04507812 2.76492188 13 3 C13 3.66 13 4.32 13 5 C0.33029613 4.22095672 0.33029613 4.22095672 -5 2 C-4.360625 1.855625 -3.72125 1.71125 -3.0625 1.5625 C-1.02454854 1.18992819 -1.02454854 1.18992819 0 0 Z " transform="translate(268,267)" style="fill: #AAAAAA;"/><path d="M0 0 C-3.26857989 2.17905326 -6.21786148 3.09373811 -9.94140625 4.21875 C-12.18124242 4.90777029 -12.18124242 4.90777029 -14 7 C-14 3 -14 3 -12.375 0.8125 C-8.23603087 -2.34618697 -4.41775314 -2.8885309 0 0 Z " transform="translate(380,196)" style="fill: #BDBFC0;"/><path d="M0 0 C0.65355469 0.59748047 0.65355469 0.59748047 1.3203125 1.20703125 C5.00994686 4.48936831 8.43077198 6.99399746 13 9 C13 11.64 13 14.28 13 17 C12.773125 16.443125 12.54625 15.88625 12.3125 15.3125 C10.2857602 11.74157749 7.29320091 9.2323444 4.33984375 6.41796875 C2.85930072 4.97942694 1.42615036 3.49248294 0 2 C0 1.34 0 0.68 0 0 Z " transform="translate(236,234)" style="fill: #B7B7B7;"/><path d="M0 0 C1.75029762 0.31082872 3.50022694 0.62373179 5.25 0.9375 C6.71179688 1.19853516 6.71179688 1.19853516 8.203125 1.46484375 C10.49721795 1.90379729 12.74291971 2.40348592 15 3 C15 3.66 15 4.32 15 5 C9.39 4.34 3.78 3.68 -2 3 C-1.34 2.01 -0.68 1.02 0 0 Z " transform="translate(376,226)" style="fill: #A1A5A4;"/><path d="M0 0 C0.66 0.33 1.32 0.66 2 1 C1.34 3.31 0.68 5.62 0 8 C-2.97 7.67 -5.94 7.34 -9 7 C-6.25604436 4.05278838 -3.61662784 1.80831392 0 0 Z " transform="translate(209,150)" style="fill: #B0ACAB;"/><path d="M0 0 C1.17046875 0.03609375 2.3409375 0.0721875 3.546875 0.109375 C4.43890625 0.15578125 5.3309375 0.2021875 6.25 0.25 C6.58 1.57 6.91 2.89 7.25 4.25 C5.27 4.58 3.29 4.91 1.25 5.25 C2.24 4.26 3.23 3.27 4.25 2.25 C-3.30038422 2.90349633 -3.30038422 2.90349633 -10.75 4.25 C-7.43152371 0.07726249 -5.22729025 -0.20909161 0 0 Z " transform="translate(200.75,171.75)" style="fill: #AA776C;"/><path d="M0 0 C0.66 0 1.32 0 2 0 C1.5464821 7.02952752 -0.12059087 12.5849443 -3 19 C-3.33 19 -3.66 19 -4 19 C-4 17.35 -4 15.7 -4 14 C-3.34 14 -2.68 14 -2 14 C-1.93941406 13.24074219 -1.87882812 12.48148437 -1.81640625 11.69921875 C-1.69072266 10.20841797 -1.69072266 10.20841797 -1.5625 8.6875 C-1.48128906 7.70136719 -1.40007812 6.71523438 -1.31640625 5.69921875 C-1 3 -1 3 0 0 Z " transform="translate(359,265)" style="fill: #957770;"/><path d="M0 0 C1.69962891 -0.04253906 1.69962891 -0.04253906 3.43359375 -0.0859375 C7.13384096 0.45916758 8.2588704 1.51102807 10.5625 4.375 C8.5625 5.375 8.5625 5.375 6.71484375 4.81640625 C5.98394531 4.52636719 5.25304687 4.23632812 4.5 3.9375 C-0.34019881 2.20885757 -4.3261447 2.13160213 -9.4375 2.375 C-5.90513908 0.02009272 -4.19029632 0.04756295 0 0 Z " transform="translate(384.4375,94.625)" style="fill: #B59085;"/><path d="M0 0 C1.61725534 3.00950123 2.67582623 5.97103608 3.625 9.25 C3.88539063 10.14203125 4.14578125 11.0340625 4.4140625 11.953125 C4.70410156 12.96632812 4.70410156 12.96632812 5 14 C4.01 13.67 3.02 13.34 2 13 C1.67 13.99 1.34 14.98 1 16 C-0.50156874 12.99686252 -0.09281204 10.20932478 -0.0625 6.875 C-0.05347656 5.59367188 -0.04445312 4.31234375 -0.03515625 2.9921875 C-0.02355469 2.00476563 -0.01195312 1.01734375 0 0 Z " transform="translate(149,242)" style="fill: #8F3C33;"/><path d="M0 0 C1.1725131 0.95117134 2.33787015 1.91117009 3.5 2.875 C4.1496875 3.40867187 4.799375 3.94234375 5.46875 4.4921875 C6.22671875 5.23855469 6.22671875 5.23855469 7 6 C7 6.66 7 7.32 7 8 C3.28400809 8.20086443 2.22791555 8.1519437 -1 6 C-1 5.34 -1 4.68 -1 4 C-2.32 3.67 -3.64 3.34 -5 3 C-3.35 3 -1.7 3 0 3 C0 2.01 0 1.02 0 0 Z " transform="translate(253,257)" style="fill: #3F3F3F;"/><path d="M0 0 C1.48754006 0.73325207 2.96486192 1.48726078 4.4375 2.25 C5.67306641 2.87648437 5.67306641 2.87648437 6.93359375 3.515625 C9 5 9 5 9.78515625 7.171875 C9.85605469 7.77515625 9.92695313 8.3784375 10 9 C5.89041233 7.54955729 2.56741255 5.48889248 -1 3 C-0.67 2.01 -0.34 1.02 0 0 Z " transform="translate(403,253)" style="fill: #C3C4C4;"/><path d="M0 0 C12.66970387 -0.3690205 12.66970387 -0.3690205 18 2 C17.01 2.495 17.01 2.495 16 3 C16 3.66 16 4.32 16 5 C10.72 3.68 5.44 2.36 0 1 C0 0.67 0 0.34 0 0 Z " transform="translate(383,230)" style="fill: #B8BBBB;"/><path d="M0 0 C-4.46726453 3.31442207 -8.62007164 3.66009167 -14 4 C-11.56681569 0.85713694 -9.73612972 -0.29300255 -5.875 -0.8125 C-2 -1 -2 -1 0 0 Z " transform="translate(391,192)" style="fill: #A5A8AB;"/><path d="M0 0 C0.33 1.32 0.66 2.64 1 4 C0.401875 4.37125 -0.19625 4.7425 -0.8125 5.125 C-3.49654509 7.42561008 -4.5766714 9.79751065 -6 13 C-6.99 13 -7.98 13 -9 13 C-7.50923566 9.7173068 -5.61379679 7.06922559 -3.375 4.25 C-2.74335938 3.45078125 -2.11171875 2.6515625 -1.4609375 1.828125 C-0.97882813 1.22484375 -0.49671875 0.6215625 0 0 Z " transform="translate(332,272)" style="fill: #8F736A;"/><path d="M0 0 C0 0.66 0 1.32 0 2 C-5.67989374 4.49118146 -8.94474232 5.38766322 -15 4 C-15 3.67 -15 3.34 -15 3 C-13.44033782 2.491217 -11.87710759 1.99336531 -10.3125 1.5 C-9.44238281 1.2215625 -8.57226562 0.943125 -7.67578125 0.65625 C-5.00608323 0.00149195 -2.73603316 -0.11831495 0 0 Z " transform="translate(413,184)" style="fill: #B9BDBC;"/><path d="M0 0 C0.33 0 0.66 0 1 0 C1.2237569 2.99955197 1.42935249 5.99858928 1.625 9 C1.68945312 9.83917969 1.75390625 10.67835938 1.8203125 11.54296875 C2.16810891 17.15118584 1.63205295 21.61796278 0 27 C-0.33 27 -0.66 27 -1 27 C-0.67 18.09 -0.34 9.18 0 0 Z " transform="translate(298,136)" style="fill: #A2857F;"/><path d="M0 0 C-0.33 0.99 -0.66 1.98 -1 3 C-5.29 3 -9.58 3 -14 3 C-13.67 2.34 -13.34 1.68 -13 1 C-8.63585999 0.14428627 -4.43923267 -0.10827397 0 0 Z " transform="translate(208,142)" style="fill: #6B0F00;"/><path d="M0 0 C0.66 0.99 1.32 1.98 2 3 C1.01 3.33 0.02 3.66 -1 4 C-1.309375 4.78375 -1.61875 5.5675 -1.9375 6.375 C-3.14208614 9.35103635 -4.33158609 10.31000453 -7 12 C-6.38801624 8.56049636 -5.07941153 6.48435515 -2.9375 3.75 C-2.38964844 3.04359375 -1.84179688 2.3371875 -1.27734375 1.609375 C-0.85582031 1.07828125 -0.43429687 0.5471875 0 0 Z " transform="translate(309,336)" style="fill: #701C0B;"/><path d="M0 0 C0.33 0 0.66 0 1 0 C1 2.97 1 5.94 1 9 C0.01 9 -0.98 9 -2 9 C-2 8.01 -2 7.02 -2 6 C-3.98 6.33 -5.96 6.66 -8 7 C-8.33 6.34 -8.66 5.68 -9 5 C-4.545 4.505 -4.545 4.505 0 4 C0 2.68 0 1.36 0 0 Z " transform="translate(214,193)" style="fill: #D1C0BB;"/><path d="M0 0 C0.99 0 1.98 0 3 0 C3 0.66 3 1.32 3 2 C4.65 2 6.3 2 8 2 C5.61766476 3.2827959 3.40889449 4.18544487 0.8125 5 C-2.12865478 5.67987492 -2.12865478 5.67987492 -3 8 C-3.33 7.01 -3.66 6.02 -4 5 C-3.01 4.67 -2.02 4.34 -1 4 C-0.26676204 1.98491642 -0.26676204 1.98491642 0 0 Z " transform="translate(212,154)" style="fill: #D3D5D6;"/><path d="M0 0 C7.425 0.99 7.425 0.99 15 2 C15 2.33 15 2.66 15 3 C14.2575 3.144375 13.515 3.28875 12.75 3.4375 C10.09703494 3.90050901 10.09703494 3.90050901 8.0625 4.75 C4.84066053 5.140526 2.74319962 3.55863615 0 2 C0 1.34 0 0.68 0 0 Z " transform="translate(216,266)" style="fill: #D8D8D8;"/><path d="M0 0 C0.33 1.65 0.66 3.3 1 5 C0.484375 4.690625 -0.03125 4.38125 -0.5625 4.0625 C-3.66303814 2.71098337 -6.65858829 2.43314596 -10 2 C-10.66 1.67 -11.32 1.34 -12 1 C-9.22036907 -1.77963093 -3.39894022 -1.13298007 0 0 Z " transform="translate(314,181)" style="fill: #C6B0AB;"/><path d="M0 0 C2 0 2 0 4.375 2.25 C5.24125 3.1575 6.1075 4.065 7 5 C8.1446875 6.1446875 8.1446875 6.1446875 9.3125 7.3125 C9.869375 7.869375 10.42625 8.42625 11 9 C9.35 9 7.7 9 6 9 C6 8.34 6 7.68 6 7 C5.34 7 4.68 7 4 7 C4 6.01 4 5.02 4 4 C2.68 3.67 1.36 3.34 0 3 C0 2.01 0 1.02 0 0 Z " transform="translate(156,113)" style="fill: #9D796E;"/><path d="M0 0 C1.32 0.66 2.64 1.32 4 2 C4 3.65 4 5.3 4 7 C3.38125 7.144375 2.7625 7.28875 2.125 7.4375 C-0.03258322 7.93152225 -0.03258322 7.93152225 -2 9 C-1.34 6.03 -0.68 3.06 0 0 Z " transform="translate(348,261)" style="fill: #8E3D3B;"/><path d="M0 0 C0.33 0 0.66 0 1 0 C1.27429625 5.39449293 1.36055646 8.51925805 -2 13 C-2 10.33333333 -2 7.66666667 -2 5 C-2.66 4.67 -3.32 4.34 -4 4 C-3.67 3.01 -3.34 2.02 -3 1 C-3 1.66 -3 2.32 -3 3 C-2.01 3 -1.02 3 0 3 C0 2.01 0 1.02 0 0 Z " transform="translate(215,199)" style="fill: #9E7469;"/><path d="M0 0 C1.45880109 0.14107747 2.91703551 0.28802415 4.375 0.4375 C5.59316406 0.55931641 5.59316406 0.55931641 6.8359375 0.68359375 C9 1 9 1 11 2 C11 2.66 11 3.32 11 4 C2.83035714 3.33035714 2.83035714 3.33035714 0 0 Z " transform="translate(97,185)" style="fill: #A8A8A7;"/><path d="M0 0 C1.26339822 3.79019466 0.49719015 5.37522384 -1 9 C-1.99 9.495 -1.99 9.495 -3 10 C-4.13350534 12.01669827 -4.13350534 12.01669827 -5 14 C-4.54177532 10.53058454 -4.10868317 7.32604951 -3 4 C-2.34 4 -1.68 4 -1 4 C-0.67 2.68 -0.34 1.36 0 0 Z " transform="translate(392,129)" style="fill: #946559;"/><path d="M0 0 C0.33 0 0.66 0 1 0 C1.33 5.61 1.66 11.22 2 17 C0.35 16.67 -1.3 16.34 -3 16 C-2.67 15.34 -2.34 14.68 -2 14 C-1.34 14 -0.68 14 0 14 C0 9.38 0 4.76 0 0 Z " transform="translate(140,221)" style="fill: #6B473D;"/><path d="M0 0 C3.82097239 0.53069061 6.06171403 1.49701566 9 4 C6.21176345 5.0326802 5.1322726 5.04509293 2.25 4.0625 C1.5075 3.711875 0.765 3.36125 0 3 C0 2.01 0 1.02 0 0 Z " transform="translate(380,242)" style="fill: #A9ACAC;"/><path d="M0 0 C3.73487777 0.4979837 5.81237635 0.87491756 9 3 C9.6875 5.125 9.6875 5.125 10 7 C6.42032008 5.34784004 3.22017048 3.26875648 0 1 C0 0.67 0 0.34 0 0 Z " transform="translate(308,159)" style="fill: #99827E;"/><path d="M0 0 C4.95 0.99 4.95 0.99 10 2 C9.67 2.99 9.34 3.98 9 5 C6.03 4.01 3.06 3.02 0 2 C0 1.34 0 0.68 0 0 Z " transform="translate(78,179)" style="fill: #C0C0BF;"/><path d="M0 0 C6.4 -0.36923077 6.4 -0.36923077 9.4375 1.5 C9.953125 1.995 10.46875 2.49 11 3 C10.01 3.33 9.02 3.66 8 4 C6.31461399 5.99665314 6.31461399 5.99665314 5 8 C5 6.02 5 4.04 5 2 C3.35 1.67 1.7 1.34 0 1 C0 0.67 0 0.34 0 0 Z " transform="translate(197,157)" style="fill: #E2E3E3;"/><path d="M0 0 C1.32 0.66 2.64 1.32 4 2 C-2.75 6 -2.75 6 -5 6 C-3.86695008 2.60085025 -2.87481525 1.94745549 0 0 Z " transform="translate(95,256)" style="fill: #C2C2C2;"/><path d="M0 0 C0.33 0.66 0.66 1.32 1 2 C-1.97 2.66 -4.94 3.32 -8 4 C-7 1 -7 1 -4.5625 -0.25 C-2 -1 -2 -1 0 0 Z " transform="translate(94,236)" style="fill: #D9D9D9;"/><path d="M0 0 C-1.97420135 2.52259061 -2.96745642 2.9929808 -6.1875 3.6875 C-7.5796875 3.8421875 -7.5796875 3.8421875 -9 4 C-9 3.34 -9 2.68 -9 2 C-5.86501708 0.14223235 -3.62528568 -0.20140476 0 0 Z " transform="translate(132,239)" style="fill: #A7A7A6;"/><path d="M0 0 C1.27875 -0.061875 2.5575 -0.12375 3.875 -0.1875 C4.95394531 -0.23970703 4.95394531 -0.23970703 6.0546875 -0.29296875 C6.69664063 -0.19628906 7.33859375 -0.09960938 8 0 C8.66 0.99 9.32 1.98 10 3 C8.5199159 2.88637738 7.04089926 2.75877092 5.5625 2.625 C4.73878906 2.55539063 3.91507812 2.48578125 3.06640625 2.4140625 C2.38449219 2.27742187 1.70257813 2.14078125 1 2 C0.67 1.34 0.34 0.68 0 0 Z " transform="translate(119,210)" style="fill: #A2A2A0;"/><path d="M0 0 C2.97 0.33 5.94 0.66 9 1 C8.67 1.66 8.34 2.32 8 3 C5.36 3 2.72 3 0 3 C0 2.01 0 1.02 0 0 Z " transform="translate(99,206)" style="fill: #C1C1C1;"/><path d="M0 0 C0.66 0 1.32 0 2 0 C1.67 3.3 1.34 6.6 1 10 C0.34 9.67 -0.32 9.34 -1 9 C-0.67 6.03 -0.34 3.06 0 0 Z " transform="translate(320,197)" style="fill: #E9E9E9;"/><path d="M0 0 C0.66 0.33 1.32 0.66 2 1 C0.576875 1.8971875 0.576875 1.8971875 -0.875 2.8125 C-4.13964197 4.81562526 -4.13964197 4.81562526 -6 8 C-6.99 8 -7.98 8 -9 8 C-9 7.34 -9 6.68 -9 6 C-7.03125 4.4921875 -7.03125 4.4921875 -4.5 2.875 C-3.6646875 2.33617188 -2.829375 1.79734375 -1.96875 1.2421875 C-1.3190625 0.83226563 -0.669375 0.42234375 0 0 Z " transform="translate(355,107)" style="fill: #C19F95;"/><path d="M0 0 C2.97 0 5.94 0 9 0 C9 0.33 9 0.66 9 1 C6.36 1 3.72 1 1 1 C1.33 2.32 1.66 3.64 2 5 C0.68 5 -0.64 5 -2 5 C-1.34 3.35 -0.68 1.7 0 0 Z " transform="translate(365,227)" style="fill: #BABEBF;"/><path d="M0 0 C3.375 0.3125 3.375 0.3125 7 1 C7.66 1.99 8.32 2.98 9 4 C5.625 3.6875 5.625 3.6875 2 3 C1.34 2.01 0.68 1.02 0 0 Z " transform="translate(121,194)" style="fill: #A1A1A1;"/><path d="M0 0 C0 0.33 0 0.66 0 1 C-4.32059823 2.09845718 -8.61667943 3.17812739 -13 4 C-8.74504132 -0.44836589 -5.9812469 -0.09647172 0 0 Z " transform="translate(303,174)" style="fill: #C6A69F;"/><path d="M0 0 C2 1 2 1 4 3 C4.36933645 5.75372909 4.18336678 8.20365661 4 11 C1.6870518 8.6870518 1.50419025 7.52095125 0.875 4.375 C0.70742187 3.55773437 0.53984375 2.74046875 0.3671875 1.8984375 C0.24601562 1.27195313 0.12484375 0.64546875 0 0 Z " transform="translate(119,151)" style="fill: #B28E85;"/><path d="M0 0 C2.475 0.99 2.475 0.99 5 2 C4.67 3.32 4.34 4.64 4 6 C2.68 5.34 1.36 4.68 0 4 C0 2.68 0 1.36 0 0 Z " transform="translate(299,148)" style="fill: #A83714;"/><path d="M0 0 C0.99 0 1.98 0 3 0 C2.67 2.64 2.34 5.28 2 8 C1.34 8 0.68 8 0 8 C0 5.36 0 2.72 0 0 Z " transform="translate(142,219)" style="fill: #6B1204;"/><path d="M0 0 C0.33 0 0.66 0 1 0 C1.66 2.97 2.32 5.94 3 9 C-1 7 -1 7 -3 4 C-2.34 4 -1.68 4 -1 4 C-0.67 2.68 -0.34 1.36 0 0 Z " transform="translate(350,160)" style="fill: #331514;"/><path d="M0 0 C1.37245106 2.74490212 0.93580311 4.12060581 0 7 C-2.0625 8.3125 -2.0625 8.3125 -4 9 C-2.25 2.25 -2.25 2.25 0 0 Z " transform="translate(289,178)" style="fill: #A7857D;"/><path d="M0 0 C0.66 0 1.32 0 2 0 C4.1519437 3.22791555 4.20086443 4.28400809 4 8 C0 3.375 0 3.375 0 0 Z " transform="translate(328,174)" style="fill: #876158;"/><path d="M0 0 C0.66 0.33 1.32 0.66 2 1 C-0.75 3.0625 -0.75 3.0625 -4 5 C-6.203125 4.62109375 -6.203125 4.62109375 -8 4 C-6.71349294 3.30289269 -5.42059335 2.61757124 -4.125 1.9375 C-3.40570313 1.55464844 -2.68640625 1.17179687 -1.9453125 0.77734375 C-1.30335938 0.52082031 -0.66140625 0.26429687 0 0 Z " transform="translate(373,97)" style="fill: #BD958C;"/><path d="M0 0 C2.64 0.33 5.28 0.66 8 1 C8 1.33 8 1.66 8 2 C4.7 2.33 1.4 2.66 -2 3 C-1.34 2.01 -0.68 1.02 0 0 Z " transform="translate(376,226)" style="fill: #B4BCBC;"/><path d="M0 0 C0.33 1.98 0.66 3.96 1 6 C0.01 5.67 -0.98 5.34 -2 5 C-2 4.01 -2 3.02 -2 2 C-2.99 1.67 -3.98 1.34 -5 1 C-3 0 -3 0 0 0 Z " transform="translate(216,148)" style="fill: #A7A5A6;"/><path d="M0 0 C0.99 0.495 0.99 0.495 2 1 C1.01 1.495 1.01 1.495 0 2 C0 1.34 0 0.68 0 0 Z M-4 3 C-3.01 3.33 -2.02 3.66 -1 4 C-2.65 5.32 -4.3 6.64 -6 8 C-6 5 -6 5 -4 3 Z " transform="translate(350,112)" style="fill: #6B1A0A;"/></svg>